<?xml version="1.0" encoding="utf-8"?>
<!-- Generator: Adobe Illustrator 15.0.0, SVG Export Plug-In . SVG Version: 6.00 Build 0)  -->
<!DOCTYPE svg PUBLIC "-//W3C//DTD SVG 1.1//EN" "http://www.w3.org/Graphics/SVG/1.1/DTD/svg11.dtd">
<svg version="1.1" id="Layer_1" xmlns="http://www.w3.org/2000/svg" xmlns:xlink="http://www.w3.org/1999/xlink" x="0px" y="0px"
	 width="265.693px" height="250.806px" viewBox="0 0 265.693 250.806" enable-background="new 0 0 265.693 250.806"
	 xml:space="preserve">
<circle fill="#374E68" cx="95.646" cy="111.371" r="13.098"/>
<path fill="#374E68" d="M72.725,98.928c7.811-13.866,24.6-20.532,39.949-11.606c9.823,5.712,13.753,15.536,9.924,32.498
	c9.723-6.811,13.591-19.291,14.307-28.093c0.85-10.437-4.048-21.571-12.458-27.506c-9.495-6.701-22.837-7.324-32.873-1.821
	c-14.307,7.844-18.77,20.427-18.849,35.874"/>
<path fill="#374E68" d="M83.857,137.567c-14.955-10.794-23.201-24.996-22.267-45.729c0.553-12.25,5.353-25.614,13.607-34.825
	c15.979-17.827,45.179-15.927,60.442,1.114c-1.884-29.775-41.082-42.131-65.043-34.514c-17.104,5.437-28.392,15.284-35.385,31.928
	c-7.048,16.773-9.171,36.054,0.51,51.9C47.058,125.996,63.367,133.229,83.857,137.567"/>
<path fill="#374E68" d="M19.677,83.428c-0.192,6.62,1.567,14.028,4.041,20.163c13.185,32.699,54.239,54.434,88.345,42.707
	c21.713-7.465,34.514-38.469,41.215-58.503c2.476,7.104,3.216,26.359,3.275,34.382c0.104,14.08-1.346,28.974-4.652,43.551
	c-3.862,17.027-12.049,36.676-28.421,49.773c-16.872,13.497-41.888-0.059-54.357-9.824c-13.204-10.34-27.79-27.994-35.28-43.425
	c-5.905-12.163-10.723-24.716-13.183-37.782C18.672,113.911,15.609,93.418,19.677,83.428"/>
<path fill="#374E68" d="M12.65,139.493c9.447,52.72,55.482,94.168,109.517,96.959c-7.04,4.898-18.601,9.479-23.71,10.686
	c-19.25,4.545-44.025,5.867-62.562-1.914c-16.002-6.715-28.563-20.012-33.898-35.989C-3.648,192.325,3.558,160.304,12.65,139.493"/>
<path fill="#374E68" d="M129.359,238.457c15.209-4.947,29.592-11.952,42.715-19.577c12.172-7.07,23.815-15.885,34.842-24.564
	c17.01-13.394,34.075-26.953,48.013-43.261c5.434,33.661-10.382,78.976-47.036,88.14c-17.248,4.312-33.379,5.549-52.33,4.355
	C148.765,243.12,133.646,240.884,129.359,238.457"/>
<path fill="#374E68" d="M66.83,7.896c15.586-3.269,40.825,4.543,54.225,11.788c12.717,6.876,23.311,19.975,30.264,32.418
	c11.19,20.027,15.435,40.441,17.24,61.889c2.785,33.066-5.485,77.69-27.199,105.301c54.684-23.654,80.617-90.408,70.533-145.578
	C200.723,12.598,119.393-14.757,66.83,7.896"/>
<path fill="#374E68" d="M176.936,8.633c2.927-0.287,15.391,5.976,20.786,11.241c3.554,3.468,6.775,7.271,9.648,11.32
	c5.633,7.937,10.372,15.263,13.362,24.51c3.038,9.389,5.598,18.705,6.549,28.517c0.959,9.88,1.105,21.823,0.655,31.734
	c-0.669,14.745-5.703,38.089-14.08,50.755c13.479-10.588,30.335-30.238,38.312-45.516c9.516-18.227,16.254-43.455,12.44-64.02
	c-7.066-38.123-46.721-61.824-82.085-50.854C181.571,6.616,177.836,7.978,176.936,8.633"/>
</svg>
