<?xml version="1.0" encoding="utf-8"?>
<!-- Generator: Adobe Illustrator 15.0.0, SVG Export Plug-In . SVG Version: 6.00 Build 0)  -->
<!DOCTYPE svg PUBLIC "-//W3C//DTD SVG 1.1//EN" "http://www.w3.org/Graphics/SVG/1.1/DTD/svg11.dtd" [
	<!ENTITY ns_extend "http://ns.adobe.com/Extensibility/1.0/">
	<!ENTITY ns_ai "http://ns.adobe.com/AdobeIllustrator/10.0/">
	<!ENTITY ns_graphs "http://ns.adobe.com/Graphs/1.0/">
	<!ENTITY ns_vars "http://ns.adobe.com/Variables/1.0/">
	<!ENTITY ns_imrep "http://ns.adobe.com/ImageReplacement/1.0/">
	<!ENTITY ns_sfw "http://ns.adobe.com/SaveForWeb/1.0/">
	<!ENTITY ns_custom "http://ns.adobe.com/GenericCustomNamespace/1.0/">
	<!ENTITY ns_adobe_xpath "http://ns.adobe.com/XPath/1.0/">
]>
<svg version="1.1" id="Layer_1" xmlns:x="&ns_extend;" xmlns:i="&ns_ai;" xmlns:graph="&ns_graphs;"
	 xmlns="http://www.w3.org/2000/svg" xmlns:xlink="http://www.w3.org/1999/xlink" x="0px" y="0px" width="568.777px"
	 height="324.83px" viewBox="0 0 568.777 324.83" enable-background="new 0 0 568.777 324.83" xml:space="preserve">
<metadata>
	<sfw  xmlns="&ns_sfw;">
		<slices></slices>
		<sliceSourceBounds  height="324.83" width="568.777" x="714.843" y="-667.802" bottomLeftOrigin="true"></sliceSourceBounds>
	</sfw>
</metadata>
<g>
	<circle fill="#374E68" cx="175.157" cy="85.028" r="10"/>
	<path fill="#374E68" d="M157.657,75.528c5.964-10.586,18.781-15.676,30.5-8.861c7.5,4.361,10.5,11.861,7.577,24.812
		c7.423-5.2,10.376-14.728,10.923-21.448c0.648-7.968-3.091-16.469-9.512-21c-7.249-5.116-17.436-5.592-25.098-1.391
		c-10.923,5.989-14.33,15.595-14.391,27.389"/>
	<path fill="#374E68" d="M166.157,105.028c-11.418-8.241-17.714-19.084-17-34.912c0.422-9.353,4.086-19.556,10.389-26.588
		c12.199-13.61,34.492-12.16,46.146,0.851c-1.438-22.732-31.365-32.166-49.659-26.351c-13.059,4.151-21.676,11.669-27.015,24.376
		c-5.381,12.806-7.002,27.526,0.389,39.624C138.062,96.194,150.514,101.716,166.157,105.028"/>
	<path fill="#374E68" d="M117.157,63.694c-0.147,5.054,1.196,10.71,3.085,15.395c10.066,24.964,41.41,41.558,67.448,32.605
		c16.577-5.7,26.351-29.37,31.467-44.666c1.89,5.424,2.455,20.124,2.5,26.25c0.079,10.75-1.027,22.121-3.552,33.25
		c-2.948,13-9.198,28-21.698,38c-12.881,10.305-31.979-0.045-41.5-7.5c-10.081-7.895-21.217-21.374-26.936-33.154
		c-4.509-9.287-8.187-18.87-10.064-28.846C116.39,86.968,114.052,71.322,117.157,63.694"/>
	<path fill="#374E68" d="M111.793,106.499c7.212,40.25,42.358,71.895,83.612,74.025c-5.375,3.74-14.201,7.236-18.102,8.157
		c-14.697,3.471-33.612,4.479-47.765-1.46c-12.218-5.128-21.808-15.279-25.881-27.478
		C99.349,146.834,104.851,122.387,111.793,106.499"/>
	<path fill="#374E68" d="M200.896,182.055c11.611-3.776,22.593-9.126,32.611-14.946c9.293-5.398,18.183-12.127,26.601-18.755
		c12.986-10.225,26.016-20.578,36.656-33.028c4.148,25.699-7.926,60.295-35.91,67.292c-13.169,3.292-25.484,4.237-39.953,3.325
		C215.712,185.615,204.17,183.907,200.896,182.055"/>
	<path fill="#374E68" d="M153.157,6.028c11.899-2.496,31.169,3.468,41.398,9c9.709,5.25,17.797,15.25,23.105,24.75
		c8.544,15.29,11.784,30.875,13.163,47.25c2.126,25.246-4.188,59.315-20.767,80.395c41.75-18.059,61.549-69.024,53.851-111.145
		C255.38,9.618,193.287-11.267,153.157,6.028"/>
	<path fill="#374E68" d="M237.22,6.591c2.234-0.219,11.75,4.562,15.869,8.583c2.713,2.647,5.173,5.551,7.366,8.642
		c4.301,6.06,7.919,11.653,10.202,18.713c2.319,7.168,4.273,14.28,5,21.771c0.731,7.543,0.844,16.661,0.5,24.229
		c-0.511,11.257-4.354,29.08-10.75,38.75c10.291-8.083,23.16-23.086,29.25-34.75c7.265-13.915,12.409-33.177,9.498-48.877
		c-5.396-29.105-35.67-47.201-62.67-38.826C240.759,5.051,237.907,6.091,237.22,6.591"/>
</g>
<g>
	<circle fill="#374E68" cx="403.669" cy="116.848" r="7.039"/>
	<path fill="#374E68" d="M415.986,110.161c-4.197-7.451-13.219-11.033-21.468-6.237c-5.278,3.069-7.391,8.349-5.332,17.463
		c-5.226-3.66-7.304-10.366-7.688-15.096c-0.456-5.609,2.175-11.592,6.694-14.781c5.103-3.601,12.272-3.936,17.665-0.979
		c7.688,4.216,10.087,10.977,10.129,19.278"/>
	<path fill="#374E68" d="M410.004,130.925c8.036-5.8,12.468-13.432,11.966-24.573c-0.297-6.583-2.877-13.764-7.312-18.714
		c-8.586-9.58-24.277-8.559-32.48,0.599c1.013-16,22.076-22.64,34.953-18.547c9.191,2.922,15.257,8.213,19.015,17.157
		c3.787,9.013,4.928,19.375-0.274,27.89C429.779,124.707,421.015,128.594,410.004,130.925"/>
	<path fill="#374E68" d="M444.493,101.832c0.104,3.557-0.843,7.538-2.172,10.835c-7.085,17.572-29.146,29.251-47.474,22.95
		c-11.668-4.011-18.547-20.672-22.148-31.438c-1.33,3.818-1.728,14.165-1.76,18.476c-0.056,7.567,0.724,15.57,2.5,23.403
		c2.075,9.15,6.475,19.709,15.272,26.747c9.066,7.253,22.51-0.032,29.211-5.279c7.095-5.557,14.934-15.044,18.958-23.335
		c3.174-6.537,5.763-13.281,7.084-20.303C445.033,118.213,446.679,107.201,444.493,101.832"/>
	<path fill="#374E68" d="M448.269,131.96c-5.076,28.33-29.814,50.604-58.852,52.104c3.783,2.633,9.996,5.094,12.741,5.742
		c10.345,2.442,23.658,3.152,33.62-1.029c8.599-3.608,15.349-10.753,18.216-19.34C457.027,160.351,453.155,143.143,448.269,131.96"
		/>
	<path fill="#374E68" d="M385.553,185.141c-8.173-2.659-15.902-6.423-22.954-10.521c-6.541-3.799-12.798-8.535-18.723-13.2
		c-9.141-7.197-18.312-14.484-25.801-23.247c-2.92,18.088,5.578,42.439,25.275,47.363c9.269,2.317,17.938,2.982,28.121,2.341
		C375.124,187.646,383.249,186.444,385.553,185.141"/>
	<path fill="#374E68" d="M419.154,61.243c-8.376-1.757-21.938,2.441-29.14,6.334c-6.833,3.695-12.525,10.734-16.263,17.42
		c-6.013,10.762-8.294,21.732-9.265,33.258c-1.496,17.769,2.948,41.749,14.617,56.585c-29.386-12.71-43.322-48.582-37.903-78.229
		C347.204,63.77,390.908,49.07,419.154,61.243"/>
	<path fill="#374E68" d="M359.986,61.639c-1.573-0.154-8.271,3.211-11.17,6.041c-1.909,1.863-3.641,3.907-5.185,6.083
		c-3.027,4.265-5.574,8.202-7.181,13.171c-1.633,5.045-3.009,10.052-3.52,15.324c-0.515,5.31-0.594,11.727-0.353,17.053
		c0.36,7.923,3.065,20.468,7.566,27.275c-7.243-5.69-16.301-16.25-20.587-24.459c-5.114-9.794-8.734-23.352-6.686-34.402
		c3.798-20.486,25.106-33.223,44.11-27.328C357.495,60.555,359.503,61.287,359.986,61.639"/>
</g>
<g>
	<path fill="#374E68" d="M3.223,247.981c0.858,0,1.611,0.321,2.255,0.967c0.609,0.609,0.914,1.36,0.914,2.256v67.236h34.852
		c0.896,0,1.647,0.304,2.256,0.912c0.645,0.645,0.967,1.396,0.967,2.255c0,0.896-0.322,1.665-0.967,2.31
		c-0.608,0.608-1.36,0.913-2.256,0.913H3.223c-0.896,0-1.665-0.305-2.31-0.913C0.304,323.272,0,322.503,0,321.607v-70.403
		c0-0.896,0.304-1.646,0.913-2.256C1.558,248.303,2.327,247.981,3.223,247.981z"/>
	<path fill="#374E68" d="M91.295,324.83c-10.634,0-19.709-3.76-27.228-11.277c-7.519-7.519-11.277-16.594-11.277-27.228
		c0-10.633,3.759-19.709,11.277-27.227c7.519-7.519,16.594-11.277,27.228-11.277c10.633,0,19.708,3.759,27.228,11.277
		c7.518,7.518,11.276,16.594,11.276,27.227c0,10.634-3.759,19.709-11.276,27.228C111.003,321.07,101.928,324.83,91.295,324.83z
		 M91.295,254.211c-8.843,0-16.397,3.151-22.662,9.452c-6.266,6.266-9.398,13.82-9.398,22.662c0,8.843,3.133,16.397,9.398,22.662
		c6.265,6.267,13.819,9.398,22.662,9.398s16.397-3.132,22.662-9.398c6.301-6.265,9.452-13.819,9.452-22.662
		c0-8.842-3.151-16.396-9.452-22.662C107.692,257.362,100.138,254.211,91.295,254.211z"/>
	<path fill="#374E68" d="M151.28,247.981c0.859,0,1.611,0.321,2.256,0.967c0.607,0.609,0.913,1.36,0.913,2.256v67.236h34.853
		c0.895,0,1.646,0.304,2.256,0.912c0.645,0.645,0.966,1.396,0.966,2.255c0,0.896-0.321,1.665-0.966,2.31
		c-0.609,0.608-1.361,0.913-2.256,0.913H151.28c-0.896,0-1.665-0.305-2.309-0.913c-0.609-0.645-0.913-1.414-0.913-2.31v-70.403
		c0-0.896,0.304-1.646,0.913-2.256C149.615,248.303,150.385,247.981,151.28,247.981z"/>
	<path fill="#374E68" d="M212.501,321.607c0,0.896-0.321,1.647-0.967,2.256c-0.608,0.645-1.36,0.967-2.254,0.967
		c-0.896,0-1.648-0.322-2.256-0.967c-0.646-0.608-0.967-1.36-0.967-2.256v-70.351c0-0.894,0.321-1.646,0.967-2.256
		c0.607-0.644,1.359-0.966,2.256-0.966c0.894,0,1.646,0.322,2.254,0.966c0.646,0.609,0.967,1.362,0.967,2.256V321.607z"/>
	<path fill="#374E68" d="M237.473,324.83c-0.894,0-1.646-0.322-2.255-0.967c-0.645-0.608-0.966-1.36-0.966-2.256v-70.511
		c0-0.896,0.303-1.647,0.912-2.256c0.646-0.645,1.415-0.967,2.309-0.967l24.758-0.107c6.337,0,11.689,1.987,16.057,5.961
		c4.369,4.01,6.552,8.897,6.552,14.66c0,3.581-0.895,6.929-2.686,10.044c-1.718,3.043-4.1,5.53-7.142,7.464
		c3.472,1.79,6.212,4.261,8.217,7.411c2.04,3.222,3.061,6.749,3.061,10.58c0,5.764-2.221,10.686-6.659,14.768
		c-4.403,4.118-9.739,6.176-16.004,6.176H237.473z M240.696,283.264l21.534-0.053c4.474,0,8.288-1.45,11.439-4.351
		c3.149-2.899,4.725-6.391,4.725-10.473c0-3.974-1.558-7.338-4.672-10.096c-3.114-2.721-6.946-4.081-11.492-4.081l-21.534,0.107
		V283.264z M240.696,318.386h22.93c4.476,0,8.305-1.414,11.493-4.242c3.15-2.828,4.726-6.247,4.726-10.257
		c0-4.011-1.558-7.375-4.672-10.097c-3.115-2.756-6.928-4.136-11.439-4.136c-0.144,0-0.286,0-0.429,0c-0.322,0-0.682,0-1.074,0
		h-21.534V318.386z"/>
	<path fill="#374E68" d="M333.278,247.928c6.194,0,11.492,2.023,15.897,6.068c4.367,4.046,6.551,8.933,6.551,14.661
		c0,5.084-1.791,9.559-5.37,13.425c-3.509,3.831-7.931,6.159-13.265,6.982l15.305,31.201c0.394,0.788,0.448,1.594,0.162,2.416
		c-0.288,0.824-0.825,1.433-1.611,1.826c-0.43,0.215-0.896,0.322-1.396,0.322c-1.326,0-2.274-0.591-2.847-1.772l-16.595-33.672
		h-17.937v31.738c0,0.859-0.322,1.612-0.966,2.256c-0.61,0.609-1.362,0.914-2.256,0.914c-0.86,0-1.612-0.305-2.256-0.914
		c-0.61-0.644-0.913-1.396-0.913-2.256v-70.027c0-0.896,0.303-1.647,0.913-2.256c0.644-0.607,1.396-0.913,2.256-0.913H333.278z
		 M349.39,268.657c0-3.975-1.575-7.357-4.726-10.15c-3.15-2.828-6.945-4.242-11.386-4.242h-21.104v28.731h21.48
		c4.367-0.071,8.074-1.505,11.116-4.297C347.851,275.907,349.39,272.56,349.39,268.657z"/>
	<path fill="#374E68" d="M370.227,324.562c-0.823-0.322-1.396-0.895-1.719-1.719c-0.357-0.823-0.357-1.646,0-2.47l7.465-17.991
		v-0.053l21.75-52.469c0.071-0.178,0.16-0.376,0.269-0.591l0.215-0.214c0.107-0.144,0.178-0.232,0.215-0.269
		c0.035-0.036,0.125-0.107,0.269-0.215c0.179-0.143,0.25-0.196,0.215-0.161c0.357-0.251,0.732-0.411,1.127-0.483h0.269
		c0.215-0.035,0.341-0.054,0.377-0.054c0.033,0,0.141,0.019,0.321,0.054c0.215,0,0.305,0,0.27,0
		c0.429,0.072,0.822,0.232,1.181,0.483l0.215,0.161c0.144,0.144,0.231,0.215,0.268,0.215c0.035,0.036,0.107,0.125,0.215,0.269
		c0.143,0.179,0.216,0.251,0.216,0.214c0.107,0.215,0.196,0.413,0.268,0.591l21.75,52.469v0.053l7.465,17.991
		c0.358,0.824,0.358,1.646,0,2.47c-0.322,0.824-0.895,1.396-1.719,1.719c-0.394,0.179-0.805,0.269-1.235,0.269
		c-1.433,0-2.416-0.662-2.953-1.987l-6.66-16.004h-39.202l-6.658,16.004c-0.538,1.325-1.522,1.987-2.954,1.987
		c-0.43,0-0.645,0-0.645,0S370.621,324.74,370.227,324.562z M417.646,300.395l-16.97-40.921l-16.971,40.921H417.646z"/>
	<path fill="#374E68" d="M474.41,247.928c6.193,0,11.492,2.023,15.896,6.068c4.368,4.046,6.553,8.933,6.553,14.661
		c0,5.084-1.791,9.559-5.372,13.425c-3.509,3.831-7.929,6.159-13.265,6.982l15.307,31.201c0.394,0.788,0.447,1.594,0.16,2.416
		c-0.287,0.824-0.823,1.433-1.611,1.826c-0.429,0.215-0.895,0.322-1.396,0.322c-1.325,0-2.273-0.591-2.847-1.772l-16.594-33.672
		h-17.937v31.738c0,0.859-0.323,1.612-0.967,2.256c-0.61,0.609-1.361,0.914-2.256,0.914c-0.858,0-1.61-0.305-2.255-0.914
		c-0.609-0.644-0.913-1.396-0.913-2.256v-70.027c0-0.896,0.304-1.647,0.913-2.256c0.645-0.607,1.396-0.913,2.255-0.913H474.41z
		 M490.521,268.657c0-3.975-1.576-7.357-4.726-10.15c-3.149-2.828-6.946-4.242-11.385-4.242h-21.105v28.731h21.481
		c4.366-0.071,8.072-1.505,11.116-4.297C488.98,275.907,490.521,272.56,490.521,268.657z"/>
	<path fill="#374E68" d="M567.53,248.465c0.717,0.573,1.128,1.289,1.234,2.148c0.071,0.896-0.16,1.683-0.697,2.362l-26.476,33.135
		v35.497c0,0.896-0.305,1.647-0.913,2.256c-0.645,0.645-1.415,0.967-2.309,0.967c-0.859,0-1.612-0.322-2.256-0.967
		c-0.61-0.608-0.914-1.36-0.914-2.256V286.11l-26.475-33.135c-0.537-0.68-0.77-1.467-0.698-2.362
		c0.107-0.859,0.519-1.575,1.235-2.148c0.679-0.537,1.451-0.753,2.31-0.644c0.895,0.071,1.629,0.465,2.201,1.18l24.597,30.826
		l24.648-30.826c0.573-0.715,1.289-1.108,2.148-1.18C566.062,247.712,566.85,247.928,567.53,248.465z"/>
</g>
</svg>
