<svg version="1" xmlns="http://www.w3.org/2000/svg" viewBox="0 0 600 600">
  <style>
    .st1{display:inline;opacity:.19;fill:none;stroke:#1d1d1b;stroke-miterlimit:10}.st2{fill:#374e68}.st3{fill:#fff}
  </style>
  <g id="Calque_4">
    <path class="st2" d="M323 350c-5-6-28-9-28-9s5-7-1-10l-54-15c1-2 5-18-4-20-5-2-9 6-9 6s-11-14-15 4c0 0-10-12-13 5 0 0-14-11-13 5 0 0-12-12-12 6-12-11-12 6-12 6-13-10-12 7-12 7-15-8-12 7-12 7-17-7-13 10-13 10s-8-1-10 4c-3 8 14 15 14 15h2l-18 58c-1 6 8 6 8 6s-10 22-8 29c4 13 15 4 15 4s8 11 19 0c0 0 10 16 21 0 0 0 12 14 20-2 0 0 13 15 21-2 0 0 12 14 18-4 0 0 16 13 15-8 16 13 17-9 17-9 18 5 13-13 13-13 18 3 13-16 13-16 17 2 13-16 13-16 19-1 11-18 11-18 15-3 9-16 9-16s14-4 5-14z"/>
    <ellipse transform="rotate(-31 170 358)" class="st3" cx="170" cy="358" rx="5" ry="5"/>
    <ellipse transform="rotate(-67 183 357)" class="st3" cx="183" cy="357" rx="5" ry="5"/>
    <ellipse transform="matrix(.9986 -.0537 .0537 .9986 -19 11)" class="st3" cx="195" cy="354" rx="5" ry="5"/>
    <ellipse transform="translate(-1 1)" class="st3" cx="205" cy="346" rx="5" ry="5"/>
    <ellipse transform="matrix(.9986 -.0537 .0537 .9986 -18 12)" class="st3" cx="213" cy="337" rx="5" ry="5"/>
    <path class="st2" d="M471 286c2-7-9-28-9-28s8 0 7-7l-18-53c2 0 17-6 14-14-1-5-10-4-10-4s5-17-12-11c0 0 4-15-11-8 0 0 1-16-12-7 0 0 3-17-12-6 2-16-11-7-11-7 1-16-13-6-13-6-2-16-13-5-13-5-4-18-15-5-15-5s-4-7-9-6c-9 2-4 20-4 20v2l-57 19c-6 3-1 9-1 9s-23 5-28 10c-8 11 6 15 6 15s-5 13 10 15c0 0-7 18 12 18 0 0-4 18 14 15 0 0-5 19 13 16 0 0-4 17 14 12 0 0-2 21 15 9-1 19 17 8 17 8 7 17 18 3 18 3 8 17 20 1 20 1 9 16 21 1 21 1 12 16 21 0 21 0 11 10 19-2 19-2s11 9 14-4z"/>
    <ellipse transform="rotate(-66 368 159)" class="st3" cx="368" cy="159" rx="5" ry="5"/>
    <ellipse transform="rotate(-12 377 169)" class="st3" cx="377" cy="169" rx="5" ry="5"/>
    <ellipse transform="rotate(-38 386 177)" class="st3" cx="386" cy="177" rx="5" ry="5"/>
    <ellipse transform="rotate(-35 398 181)" class="st3" cx="398" cy="181" rx="5" ry="5"/>
    <ellipse transform="rotate(-38 411 182)" class="st3" cx="411" cy="182" rx="5" ry="5"/>
  </g>
</svg>
