<svg version="1" xmlns="http://www.w3.org/2000/svg" viewBox="0 0 600 600">
  <path d="M446 376c-1-9-29-58-44-87 6-13 8-27 5-41-6-28-19-52-38-70-20-19-47-29-77-29s-57 10-77 29c-19 18-32 42-38 70-3 13-1 26 4 38-16 29-48 81-49 89-2 12 4 64 11 68 5 2 65 2 143 1 82 1 144 1 149-1 8-4 13-56 11-67zM184 249c6-26 18-49 36-66 19-18 44-27 72-27s53 10 72 27c18 17 31 40 36 66 2 11 1 21-2 31l-6-12c-2-7-12-9-12-9h-63v-1l-1-1c-4 0-15 0-17-5l2-4c0-3-2-6-5-6s-5 2-5 5c0-3-2-5-5-5s-6 2-6 5c0 2 1 4 3 5-2 5-13 5-17 5l-1 1v1h-63s-10 1-12 9l-4 10c-3-10-4-19-2-29zm101 4h1c3 0 5-2 5-5 0 3 2 5 5 5h1l3 6h-18l3-6z" fill="#374e68"/>
</svg>
