<?xml version="1.0" encoding="utf-8"?>
<!-- Generator: Adobe Illustrator 21.1.0, SVG Export Plug-In . SVG Version: 6.00 Build 0)  -->
<svg version="1.1" id="Calque_5" xmlns="http://www.w3.org/2000/svg" xmlns:xlink="http://www.w3.org/1999/xlink" x="0px" y="0px"
	 viewBox="0 0 600 600" style="enable-background:new 0 0 600 600;" xml:space="preserve">
<style type="text/css">
	.st0{fill:#374E68;}
</style>
<path class="st0" d="M446.4,375.6c-0.9-8.2-29-57.7-44.6-86.8c6.4-13.1,8.3-27,5.4-41c-5.7-28.1-18.8-52.2-37.9-69.8
	c-20.6-19-47.3-29-77.2-29.2v0c0,0,0,0,0,0c0,0,0,0,0,0v0c-29.9,0.1-56.6,10.2-77.2,29.2c-19.1,17.6-32.2,41.7-37.9,69.8
	c-2.6,13-1.2,25.9,4.2,38.2c-16.4,28.6-48.5,81-49.4,89.4c-1.3,11.3,3.8,63.5,11.3,67.3c4.7,2.4,65,2.3,142.5,1.4
	c82.9,0.9,144.8,1.2,149.8-1.3C442.7,439.1,447.7,386.8,446.4,375.6z M184.1,249.2c5.4-26.6,17.8-49.5,35.8-66
	c19.3-17.7,44.2-27.1,72.2-27.2c28,0.1,52.9,9.5,72.2,27.2c18,16.6,30.4,39.4,35.8,66c2.1,10.6,1.2,21.2-2.6,31.3
	c-3.4-6.4-5.5-11-5.8-12.5c-1.3-7.5-11.3-8.8-11.3-8.8h-63.6l-0.1-0.1h-0.1v-1.4c0-0.6-0.5-1-1-1c-3.5,0.2-14.9,0.5-16.5-4.7
	c1.4-0.9,2.4-2.6,2.4-4.4c0-2.9-2.4-5.3-5.3-5.3c-2.8,0-5,2.1-5.2,4.8c-0.2-2.8-2.4-5-5.2-5c-2.9,0-5.3,2.4-5.3,5.3
	c0,1.8,1,3.5,2.4,4.4c-1.5,5.2-12.9,4.9-16.5,4.7c-0.6,0-1,0.4-1,1v1.5h-63.8c0,0-10,1.3-11.3,8.8c-0.2,1.2-1.9,4.7-4.7,9.8
	C182.7,268.4,182.1,258.8,184.1,249.2z M285.1,252.7c0.2,0,0.4,0.1,0.7,0.1c2.8,0,5-2.1,5.2-4.8c0.2,2.8,2.4,5,5.2,5
	c0.2,0,0.4,0,0.7-0.1c0,0.1,0,0.2,0,0.2l2.8,6.1h-17.5l2.9-6.2C285.1,252.9,285.2,252.8,285.1,252.7z"/>
</svg>
