<svg xmlns="http://www.w3.org/2000/svg" viewBox="0 0 600 600">
  <path d="M434.8 362.8a71.4 71.4 0 0 0 12.8-43c0-44.8-46.3-119.1-46.3-119.1h-.2.1l-9.3-29.8a522.7 522.7 0 0 1-91.4 8.5c-30.1-.4-58.1-2.3-91.4-8.5l-8.4 30.1h.1-.2s-47.2 74-47.2 118.8c0 14.2 3.1 29.9 12.8 43-.9.6-5.8 16.7-5.8 16.7-.7 2.7 1.1 5.7 4.1 6.5 3 .9 6-.6 6.8-3.4l.7-2.6-1.5 6.9c-.6 2.7 1.4 5.6 4.4 6.4 3 .8 6-.9 6.6-3.6l2.5-11-3.1 14c-.6 2.7 1.4 5.6 4.4 6.4 3 .8 6-.9 6.6-3.6l2.6-11.6-3.1 13.9c-.6 2.7 1.5 5.7 4.7 6.5 3.2.8 6.3-.8 6.9-3.5l2.9-13h.1l-.2.4-3.2 14.2c-.6 2.7 1.5 5.7 4.6 6.5 3.1.8 6.1-.7 6.8-3.4a6 6 0 0 0 4.4 4.3c3.1.9 6.2-.7 6.9-3.4l.6-2.3c-.7 2.7 1.3 5.7 4.5 6.5s6.2-.7 6.9-3.4l.7-3c-.7 2.7 1.3 5.7 4.5 6.5 3.1.9 6.2-.7 6.9-3.4l.6-2.4a5.8 5.8 0 0 0 4.8 4.8c3.2.7 6.2-1.1 6.7-3.8 0 0 2.7-16.2 2.3-17.1a40.7 40.7 0 0 0 22.9-15.7 90.1 90.1 0 0 0 14-41 89 89 0 0 0 14 41c5.6 8.2 13.8 13 22.9 15.7-.4.9 2.3 17.1 2.3 17.1.5 2.8 3.5 4.5 6.7 3.8 2.6-.6 4.5-2.6 4.8-4.8l.6 2.4c.7 2.7 3.8 4.3 6.9 3.4 3.1-.9 5.1-3.8 4.5-6.5l.7 3c.7 2.7 3.8 4.3 6.9 3.4 3.1-.9 5.1-3.8 4.5-6.5l.6 2.3c.7 2.7 3.8 4.3 6.9 3.4a6 6 0 0 0 4.4-4.3c.7 2.6 3.7 4.2 6.8 3.4 3.1-.8 5.2-3.7 4.6-6.5l-3.2-14.2-.2-.4h.1l2.9 13c.6 2.7 3.7 4.3 6.9 3.5s5.3-3.7 4.7-6.5l-3.1-13.9 2.6 11.6c.6 2.7 3.6 4.4 6.6 3.6 3-.8 5-3.6 4.4-6.4l-3.1-14 2.5 11c.6 2.7 3.6 4.4 6.6 3.6 3-.8 5-3.6 4.4-6.4L429 380l.7 2.6c.7 2.7 3.8 4.2 6.8 3.4 3-.9 4.8-3.8 4.1-6.5 0 0-4.8-16.1-5.8-16.7z" fill="#374e68"/>
</svg>
