<svg version="1" id="Calque_3" xmlns="http://www.w3.org/2000/svg" viewBox="0 0 600 600">
  <style>
    .st1{fill:#fff}
  </style>
  <path d="M492 497l-4-10c2-7 5-19 1-35-4-15-53-176-63-240-1-10-4-53-24-68-11-7-27-4-31-4l-30-7c-2-3-6-9-8-21-19 2-36 12-36 12-18-9-36-12-36-12-1 11-6 18-8 21l-30 7c-3 0-19-3-31 5-20 14-23 57-24 67-9 64-59 223-62 238-3 14-2 25 0 33l-5 9c-1 2 0 4 2 5l4-2-1 2c0 2 0 4 2 4 1 1 3 0 4-2l-1 2c-1 2 0 4 2 4 1 1 3 0 3-2v2c-1 1 0 3 1 4 2 0 4 0 4-2v1c-1 1 0 3 2 4 1 1 3 0 4-2l1 3 4-2 1-2c-1 2 0 4 1 5l4-2 1-2c-1 1 0 3 2 4 1 0 3 0 3-2l1-2 2 4c2 1 4 0 5-3l2-11c5-3 12-9 17-19 7-11 32-148 42-207l5 40c2 17-22 103-22 103 29 15 63 25 95 26l6-19 7 19c32-1 66-11 94-26 0 0-23-86-21-103l5-40c10 59 34 196 41 207 5 8 10 14 15 18l1 11 4 3c2-1 3-3 3-5l1 3c0 2 2 3 3 2 2 0 3-2 2-3l1 2 3 2c2 0 3-2 2-4l1 2 3 2c2 0 3-2 2-4l1 1c0 2 2 3 3 3 2-1 3-2 2-4l3 1c2 0 3-2 2-4v-1c1 2 2 3 4 3l2-4-1-2c1 2 2 3 4 3l2-4-1-2 4 2c2-1 4-2 3-5zm-380 1l1-2-1 2z" fill="#374e68"/>
  <circle class="st1" cx="295" cy="154" r="3"/>
  <circle class="st1" cx="295" cy="201" r="3"/>
  <circle class="st1" cx="295" cy="247" r="3"/>
  <circle class="st1" cx="295" cy="299" r="3"/>
  <circle class="st1" cx="296" cy="346" r="3"/>
  <circle class="st1" cx="296" cy="392" r="3"/>
</svg>
