<?xml version="1.0" encoding="utf-8"?>
<!-- Generator: Adobe Illustrator 21.1.0, SVG Export Plug-In . SVG Version: 6.00 Build 0)  -->
<svg version="1.1" id="Calque_3" xmlns="http://www.w3.org/2000/svg" xmlns:xlink="http://www.w3.org/1999/xlink" x="0px" y="0px"
	 viewBox="0 0 600 600" style="enable-background:new 0 0 600 600;" xml:space="preserve">
<style type="text/css">
	.st0{fill:#374E68;}
</style>
<path class="st0" d="M424.5,186.4c-13.8-10.8-73.8-19.5-73.8-19.5s-6.7,49.8-52.2,49.6c-48.8,1.1-55.9-48.2-55.9-48.2
	s-60.4,7.3-74.2,18c-12.1,9.5-48.6,101.8-76.9,202.8c32.5,41.9,111.3,41.3,144.6,24.6c19-6.6,49.6-37.2,60.3-82.5
	c10.8,45.3,41.3,75.9,60.3,82.5c33.2,16.8,112,17.4,144.6-24.6C473.1,288.2,436.6,195.9,424.5,186.4z"/>
</svg>
