<?xml version="1.0" encoding="utf-8"?>
<!-- Generator: Adobe Illustrator 21.1.0, SVG Export Plug-In . SVG Version: 6.00 Build 0)  -->
<svg version="1.1" id="Calque_3" xmlns="http://www.w3.org/2000/svg" xmlns:xlink="http://www.w3.org/1999/xlink" x="0px" y="0px"
	 viewBox="0 0 600 600" style="enable-background:new 0 0 600 600;" xml:space="preserve">
<style type="text/css">
	.st0{fill:#374E68;}
	.st1{fill:#FFFFFF;}
</style>
<g>
	<path class="st0" d="M498.7,490.5l-12.5-49.7c4.3-6.9,5.7-16.8,5.2-30.8c-4.3-82.7-65.6-257-86.2-271.4
		c-11.3-7.9-24-11.7-35.7-14.6l-23-5.8c0,0-21.2,13.6-48.7,13.6v-0.1c-27.9,0.3-49.5-13.6-49.5-13.6l-23,5.8
		c-11.6,2.9-24.4,6.8-35.7,14.6c-20.6,14.4-81.9,188.7-86.2,271.4c-0.5,14.1,0.9,23.9,5.2,30.8L96,490.4c-0.4,1.7,0.3,3.5,1.6,4.1
		c0.9,0.4,1.9,0.1,2.5-0.6l-0.2,0.9c-0.3,1.7,0.6,3.5,2,4c1.4,0.5,2.8-0.5,3-2.2l0.2-1.3l0,0l-0.4,2.2c-0.3,1.7,0.6,3.5,2,4
		c1.1,0.4,2.3-0.2,2.8-1.4c-0.2,1.6,0.8,3.3,2.2,3.8c1.2,0.4,2.4-0.2,3-1.4c-0.3,1.7,0.7,3.5,2.1,4c1.4,0.5,2.8-0.5,3.1-2.1
		c0.1,1.4,0.9,2.8,2.1,3.2c1.4,0.5,2.9-0.4,3.2-2.1l0.1-0.4c0,1.5,0.9,2.9,2.1,3.3c1.4,0.5,2.9-0.4,3.2-2.1l0.1-0.7
		c0.2,1.3,1,2.5,2.1,2.9c1.4,0.5,2.9-0.4,3.2-2.1l0.3-1.9c0.3,1.2,1.1,2.2,2.1,2.5c1.5,0.4,2.8-0.6,3.1-2.4l12.6-56.8
		c6.9-5.1,12.8-13.1,15.8-23.5c1.7-5.9,28.7-104.3,38.7-163.7c2,16.1,4,31.7,5.2,40.8c2.3,17-4.9,100.7-4.9,100.7
		c28.7,15.3,52.8,18.7,85,19.7l6.5,0.1c32.2-1,56.3-4.4,85-19.7c0,0-7.2-83.7-4.9-100.7c1.3-9.1,3.2-24.7,5.2-40.8
		c10,59.4,37,157.8,38.7,163.7c3,10.4,9,18.4,15.8,23.5l12.6,56.8c0.2,1.7,1.6,2.8,3.1,2.4c1-0.3,1.8-1.3,2.1-2.5l0.3,1.9
		c0.3,1.7,1.7,2.6,3.2,2.1c1.1-0.4,1.9-1.6,2.1-2.9l0.1,0.7c0.3,1.7,1.7,2.6,3.2,2.1c1.2-0.5,2.1-1.9,2.1-3.3l0.1,0.4
		c0.3,1.7,1.7,2.6,3.2,2.1c1.2-0.4,2-1.8,2.1-3.2c0.3,1.6,1.7,2.6,3.1,2.1c1.4-0.5,2.4-2.3,2.1-4c0.5,1.2,1.7,1.9,3,1.4
		c1.4-0.5,2.3-2.2,2.2-3.8c0.5,1.2,1.6,1.8,2.8,1.4c1.4-0.5,2.3-2.3,2-4l-0.4-2.2l0,0l0.2,1.3c0.3,1.7,1.7,2.7,3,2.2
		c1.4-0.5,2.3-2.3,2-4l-0.2-0.9c0.7,0.7,1.6,1,2.5,0.6C498.4,494,499.1,492.2,498.7,490.5z"/>
	<circle class="st1" cx="296.9" cy="186.2" r="3.1"/>
	<circle class="st1" cx="296.9" cy="233.5" r="3.1"/>
	<circle class="st1" cx="296.9" cy="279.2" r="3.1"/>
	<circle class="st1" cx="296.9" cy="331.4" r="3.1"/>
	<circle class="st1" cx="297" cy="378.6" r="3.1"/>
</g>
</svg>
