<svg version="1" id="Calque_3" xmlns="http://www.w3.org/2000/svg" viewBox="0 0 600 600">
  <style>
    .st1{fill:#fff}
  </style>
  <path d="M499 491l-13-50c4-7 6-17 5-31-4-83-65-257-86-271-11-8-24-12-36-15l-22-6s-22 14-49 14c-28 0-50-14-50-14l-23 6c-11 3-24 7-35 15-21 14-82 188-87 271 0 14 1 24 6 31l-13 49c0 2 0 4 2 4h2v1c0 1 0 3 2 4l3-2v-2 2c-1 2 0 4 2 4 1 1 2 0 2-1 0 2 1 3 3 4 1 0 2 0 3-2-1 2 0 4 2 5 1 0 3-1 3-3l2 4c1 0 3-1 3-3 0 2 1 3 2 3 2 1 3 0 4-2l2 2c1 1 3 0 3-2v-2l2 3c2 0 3-1 3-2l13-57c7-5 13-13 16-24 2-6 29-104 39-163l5 40c2 17-5 101-5 101 29 15 53 19 85 20h6c33-1 57-5 85-20 0 0-7-84-5-101l6-40c10 59 37 158 38 163 3 11 9 19 16 24l13 57c0 1 1 2 3 2l2-2v1c1 2 2 3 4 3l2-3c0 2 1 3 3 2 1 0 2-1 2-3v1l3 2c2-1 2-2 2-4 1 2 2 3 4 3l2-4c0 1 1 2 3 1l2-4c0 1 1 2 3 2l2-4-1-3v2l3 2c2-1 3-2 2-4v-1l3 1 2-4z" fill="#374e68"/>
  <circle class="st1" cx="297" cy="186" r="3"/>
  <circle class="st1" cx="297" cy="234" r="3"/>
  <circle class="st1" cx="297" cy="279" r="3"/>
  <circle class="st1" cx="297" cy="331" r="3"/>
  <circle class="st1" cx="297" cy="379" r="3"/>
</svg>
