<svg version="1" id="Calque_3" xmlns="http://www.w3.org/2000/svg" viewBox="0 0 600 600">
  <style>
    .st0{fill:#374e68}
  </style>
  <path class="st0" d="M449 377c10-3 16-15 12-25-1-4-3-6-6-7-10-38-55-208-62-227-7-17-11-27-25-23l-31-9h-1V76c0-4-2-8-5-10-14-9-52-8-61-1-5 3-7 6-7 11v10l-32 9c-16-4-20 3-28 23-7 19-55 199-63 230-3 1-5 3-6 7-4 10 2 22 12 25l9 3c-18 55-19 96-19 96 33 31 96 53 161 53 79 0 131-21 167-53 0 0-2-43-22-99l7-3zM235 247c-9 9-18 19-25 29l19-82 6 37v16zm128-1l-1-15 6-37 17 78-22-26z"/>
  <path class="st0" d="M468 445c-7-9-11-5-11-5l-158 54v22-22l-156-54s-4-4-11 4c-7 9-10 35-4 43 13 19 57 55 162 59h17c106-4 152-39 165-58 6-8 3-35-4-43z"/>
</svg>
