<svg version="1" id="Calque_5" xmlns="http://www.w3.org/2000/svg" viewBox="0 0 600 600">
  <style>
    .st1{fill:#fff}
  </style>
  <path d="M396 392s-9-36-9-51c0-14 4-16 21-84 10-39 5-61-4-74l1-1 18-55-22-9-17 50-6-2c-29-11-79 7-79 7h-2s-50-18-79-7l-6 2-17-50-22 9 18 55 1 1c-10 13-14 35-4 73 17 69 21 71 21 86 0 14-9 50-9 50l-37 40c0 1 29 54 135 56 107-2 135-55 135-55l-37-41z" fill="#374e68"/>
  <circle class="st1" cx="297" cy="211" r="3"/>
  <circle class="st1" cx="297" cy="255" r="3"/>
  <circle class="st1" cx="297" cy="305" r="3"/>
  <circle class="st1" cx="297" cy="351" r="3"/>
  <circle class="st1" cx="298" cy="395" r="3"/>
  <circle class="st1" cx="297" cy="439" r="3"/>
</svg>
