<svg version="1" xmlns="http://www.w3.org/2000/svg" viewBox="0 0 600 600">
  <path d="M447 304l17 12c0 1 7 5 7 0s6-79 2-84c-1-2-20-13-45-22 15-5 27-10 28-12 3-4-32-64-37-68-5-3-76 38-80 42l-19 25-23 1-23-1-20-25c-4-4-74-45-79-42-5 4-41 64-38 68 1 2 14 7 29 12-25 9-44 20-46 22-4 5 3 80 3 84s7 0 7 0l17-12c-15 21-32 50-32 74 0 7 50 40 56 41 2 1 1 1 2-6l2-7c16 37 50 64 94 75 5 1 12-3 11-8-47-8-86-42-101-86l1-2c18-60 91-150 91-150h52s73 90 90 150l1 2c-15 44-53 78-100 86-1 5 6 9 10 8 45-11 78-38 95-76l2 8c0 6 0 7 2 6 5-1 56-34 56-41 0-24-17-53-32-74z" fill="#374e68"/>
</svg>
