<svg version="1" id="Calque_5" xmlns="http://www.w3.org/2000/svg" viewBox="0 0 600 600">
  <style>
    .st0{fill:#374e68}
  </style>
  <ellipse transform="rotate(-80 246 142)" class="st0" cx="246" cy="142" rx="16" ry="16"/>
  <ellipse transform="rotate(-80 276 130)" class="st0" cx="276" cy="130" rx="16" ry="16"/>
  <ellipse transform="rotate(-80 219 161)" class="st0" cx="219" cy="161" rx="16" ry="16"/>
  <ellipse transform="rotate(-80 195 183)" class="st0" cx="195" cy="184" rx="16" ry="16"/>
  <ellipse transform="rotate(-82 179 212)" class="st0" cx="179" cy="212" rx="16" ry="16"/>
  <ellipse transform="rotate(-82 171 243)" class="st0" cx="171" cy="243" rx="16" ry="16"/>
  <ellipse transform="rotate(-82 165 275)" class="st0" cx="165" cy="275" rx="16" ry="16"/>
  <ellipse transform="rotate(-82 166 307)" class="st0" cx="166" cy="307" rx="16" ry="16"/>
  <ellipse transform="rotate(-82 172 338)" class="st0" cx="172" cy="338" rx="16" ry="16"/>
  <ellipse transform="rotate(-82 188 366)" class="st0" cx="188" cy="366" rx="16" ry="16"/>
  <ellipse transform="rotate(-82 208 391)" class="st0" cx="208" cy="391" rx="16" ry="16"/>
  <ellipse transform="rotate(-82 234 411)" class="st0" cx="234" cy="411" rx="16" ry="16"/>
  <ellipse transform="rotate(-76 405 175)" class="st0" cx="405" cy="175" rx="16" ry="16"/>
  <ellipse transform="rotate(-76 422 203)" class="st0" cx="422" cy="203" rx="16" ry="16"/>
  <ellipse transform="rotate(-76 433 234)" class="st0" cx="433" cy="234" rx="16" ry="16"/>
  <ellipse transform="rotate(-73 436 267)" class="st0" cx="436" cy="267" rx="16" ry="16"/>
  <ellipse transform="rotate(-73 430 299)" class="st0" cx="430" cy="299" rx="16" ry="16"/>
  <ellipse transform="rotate(-73 423 330)" class="st0" cx="423" cy="330" rx="16" ry="16"/>
  <ellipse transform="rotate(-73 408 359)" class="st0" cx="408" cy="359" rx="16" ry="16"/>
  <ellipse transform="rotate(-73 389 384)" class="st0" cx="389" cy="384" rx="16" ry="16"/>
  <ellipse transform="rotate(-73 363 402)" class="st0" cx="363" cy="402" rx="16" ry="16"/>
  <ellipse transform="rotate(-73 335 417)" class="st0" cx="335" cy="417" rx="16" ry="16"/>
  <ellipse transform="rotate(-73 303 424)" class="st0" cx="303" cy="424" rx="16" ry="16"/>
  <ellipse transform="rotate(-73 271 423)" class="st0" cx="271" cy="423" rx="16" ry="16"/>
  <path class="st0" d="M411 83l-11-7-12 5-1-1 3-12-8-9 1-1 12-1 7-11h1l5 12 12 3v1l-9 8 1 12-1 1zM302 445c-11-5-31 1-43 4l-4-4-20-7-6 1c-7-10-20-26-31-29-18-5-41 71-30 76 15 6 35 2 46-1 0 2 2 4 3 4l21 7c2 1 4 0 5-1 7 9 21 24 36 28 12 3 40-71 23-78z"/>
  <path class="st0" d="M247 437h-1l-2-3 1-5 3-4h2c1 0 2 1 2 3l-1 5c-1 3-3 4-4 4zm2-11l-1 1-2 3v5c2 1 3-1 4-3l1-4-1-2h-1zM297 128c-4 0-7-2-8-4l1-3 7-3c5 0 8 2 9 4l-1 3-7 2-1 1zm1-7h-1c-3 0-5 1-5 2l-1 1c1 1 3 2 7 1 3 0 5-1 5-2s-2-2-5-2zM314 127c-5 0-8-2-8-5l1-2 7-2c4 0 8 2 8 4l-1 2c-2 2-4 3-7 3zm0-7l-6 1v1c0 1 2 3 6 3 3 0 5-1 5-2l1-1-6-2zM331 128h-2c-4 0-8-3-7-5l1-2c1-2 4-2 7-2 5 0 8 3 8 5l-1 2-6 2zm-2-7l-5 1v1c0 1 2 3 6 3l5-1 1-1c0-1-2-3-6-3h-1zM348 131l-3-1c-3 0-6-2-7-4v-2c1-3 5-3 9-2 3 1 5 2 6 4l1 2c-1 2-3 3-6 3zm-5-8l-3 1v1c1 1 2 3 5 3h7v-1l-5-3-4-1zM397 162c-2 0-5-1-7-3l-3-6 1-3c2-2 6 0 9 3l3 6-1 3h-2zm-5-4c2 2 5 3 6 2v-1l-2-5c-3-2-6-3-7-2v1l3 5z"/>
  <path class="st0" d="M386 152l-6-3c-3-1-4-4-5-5l1-3c2-2 6-1 9 1s4 4 5 6l-1 3-3 1zm-7-10h-1v1c0 2 1 3 3 5 3 2 6 2 6 1l1-1-4-4-5-2z"/>
  <path class="st0" d="M373 143l-5-1-6-6 1-2c1-2 5-2 9 0l5 5v2l-4 2zm-4-3h6v-1l-4-4h-7v1l5 4z"/>
  <path class="st0" d="M359 136l-5-1-6-5v-3c1-2 5-2 10-1 3 1 5 3 5 5v2c0 2-2 3-4 3zm-6-9l-3 1v1l5 4h7v-1c-1-1-2-3-5-4l-4-1z"/>
  <path class="st0" d="M352 128l-2-1c-2-1-2-5 1-9 1-3 3-4 5-5h2c3 2 3 6 0 10l-5 5h-1zm5-13h-1l-4 4-1 7h1l4-4h1v-7z"/>
  <path class="st0" d="M360 115l-2-1c-2-1-1-5 1-9l6-5 2 1c3 1 2 5 0 9-2 3-4 4-6 5h-1zm6-13h-1l-4 4c-2 3-2 6-1 7h1l4-4c2-3 2-6 1-6v-1z"/>
  <path class="st0" d="M368 103l-2-1c-2-1-1-5 2-9 2-2 4-4 6-4h2c2 2 2 6-1 10-2 2-4 4-6 4h-1zm6-12l-5 3c-2 3-2 6-1 7h1l4-3c2-3 3-6 2-7h-1z"/>
  <path class="st0" d="M378 92l-2-1c-2-2-1-6 3-9 2-2 5-3 7-3l2 1c1 2 0 6-3 9l-7 3zm7-11l-5 2c-3 3-3 6-3 6l1 1 5-3c3-2 4-5 3-6h-1z"/>
  <path transform="rotate(-71 245 440)" class="st0" d="M240 439h9v2h-9z"/>
</svg>
