<?xml version="1.0" encoding="utf-8"?>
<!-- Generator: Adobe Illustrator 21.1.0, SVG Export Plug-In . SVG Version: 6.00 Build 0)  -->
<svg version="1.1" id="Calque_3" xmlns="http://www.w3.org/2000/svg" xmlns:xlink="http://www.w3.org/1999/xlink" x="0px" y="0px"
	 viewBox="0 0 600 600" style="enable-background:new 0 0 600 600;" xml:space="preserve">
<style type="text/css">
	.st0{fill:#374E68;}
</style>
<path class="st0" d="M230.7,204.5c-96.6,99.3-104.3,270.8-104.3,270.8c117.2,60.5,237.3,60.6,344.1-2.2c0,0-5.6-171.2-104-270.5
	c-0.2-0.2-0.4-0.3-0.6-0.5c-0.1,0-0.1,0-0.2-0.1l7.1-42.3c50.8,7.6,54.7-38.8,48.3-46.2c-6.5-7.5-25.1-40.9-33.2-45.9
	c-6.3-3.9-15.5-0.3-19.3,1.6l-23.8-3.3l-4.8,46.2l-9.7,1.7c-24.6,4.2-40.9,4.1-65.5-0.3l-7.3-1.3l-4.5-46.2l-20.6,3.2
	c-4-1.9-12.9-5.2-19-1.4c-8.1,5-26.8,38.4-33.2,45.9c-6.3,7.4-2.6,53.1,47,46.4l6.8,42l-0.1,0C232.7,202.8,231.7,203.7,230.7,204.5z
	"/>
</svg>
