<svg version="1" xmlns="http://www.w3.org/2000/svg" viewBox="0 0 600 600">
  <style>
    .st1{display:inline;opacity:.19;fill:none;stroke:#1d1d1b;stroke-miterlimit:10}.st3{fill:#fff}
  </style>
  <g id="Calque_4">
    <path d="M353 257c4-2-2 2 0 0 8-5 22-37 19-49h3a52 52 0 1 0-38-87c-10-8-34-8-40-8-5 0-29 0-39 8a52 52 0 0 0-90 35c0 29 23 52 52 52h3c-3 12 11 45 19 49 11 5-4-1 1 1l-1-1s-71 33-60 112c1 6 4 12 9 16 5 5 14 8 25-1-5 10-7 25-2 44 13 44 17 60 30 68 18 11 38 15 48 2 7-9 4-34 2-66h7c-2 32-5 57 2 66 9 13 29 9 48-2 13-8 16-24 29-68 6-19 3-34-2-44 12 9 20 6 26 1 5-4 8-10 9-16 10-79-60-112-60-112z" fill="#374e68"/>
    <path class="st3" d="M310 283h-25l-1-9h25z"/>
    <path class="st3" d="M305 276l47-19c6-2 11 14 7 23-3 9-3 29-9 30-5 2-10 2-14-2l-29-28-2-4zM286 275s-34-11-46-19c-4-3-11 14-7 23s3 29 8 30c5 2 11 2 15-2l29-28 1-4z"/>
    <path class="st3" d="M306 281s-8 16-7 32c1 17 15 61 15 61s23-20 28-22c5-3 28-3 28-3s-57-74-63-72-1 4-1 4zM288 282s7 15 6 32c-1 16-15 61-15 61s-23-20-28-23-28-3-28-3 57-73 63-72c6 2 2 5 2 5z"/>
  </g>
</svg>
