<svg version="1" id="Calque_4" xmlns="http://www.w3.org/2000/svg" viewBox="0 0 600 600">
  <style>
    .st0{fill:#374e68}
  </style>
  <path class="st0" d="M392 263s7-2 7-9c0-4-5-6-5-6s7-4 4-10c-2-5-8-4-8-4s9-4 7-10c-1-6-10-6-10-6s8-3 7-9c-1-7-11-7-11-7s9-3 5-11c-2-6-10-5-10-5l-2-1-74 89 69-92-1-2s-1-8-7-9c-8-2-10 7-10 7s-2-9-9-8c-6 0-7 8-7 8s-2-9-9-8c-6 0-7 8-7 8s-1-5-7-6-8 6-8 6-3-4-7-3c-6 1-7 9-7 9s-6-6-9 1l-1 3-2 42s-3-5-6 0 3 39 3 39l-4 6h-5c-6 0-11 3-14 8l-1 4c-15 4-13 20-13 20-14 4-10 17-10 17-22 19-77 119-86 137l-2 2-2 2h1l4 4-27 33h1l2 2h1l26-33 4 4h1l1-2 2-2c15-14 100-90 114-116 0 0 13 1 14-13 0 0 15-2 16-17l4-3c4-4 5-9 4-15v-5l4-5s35-1 39-6c3-4-1-6-1-6l40-11 3-2c6-4-1-9-1-9z"/>
  <path class="st0" d="M298 285l68-88 67-84c5-7 10-12 18-14 7-1 14 1 20 5 16 13 4 34-8 46-3 2 1 7 4 4 12-11 22-28 15-44-4-11-17-18-29-17-16 2-24 15-34 27l-16 20-79 101-30 39c-2 3 2 8 4 5z"/>
</svg>
