<svg xmlns="http://www.w3.org/2000/svg" viewBox="0 0 600 600">
  <path d="M515.1 397.1c4.1-68.2-37-98.5-37-98.5 0-57.1-53.3-86.1-53.3-86.1-12.8-48.3-50.4-60.6-54.5-64.4l-2.3-15.3c-54.4 11.5-79.9 11.5-136.4.3l-2.3 15c-4.2 3.9-41.4 16.1-54.3 64.4 0 0-53.3 29-53.3 86.1 0 0-39.7 24.3-37 97.9 0 0-4.7 20.3 3.4 21.9 3 .6 5.9-.9 7.1-3.2l-.5 3c-.5 3.2 2.1 6.2 5.8 6.8 3.7.6 7.1-1.5 7.5-4.7l-.5 3.5c-.5 3.2 2.1 6.2 5.8 6.8 3.7.6 7.1-1.5 7.5-4.7l1.6-10.9-2 13.5c-.5 3.2 2.3 6.2 6.2 6.8 3.9.6 7.4-1.5 7.9-4.6l1.6-10.9-1.9 12.7c-.5 3.2 2.3 6.2 6.1 6.8 3.5.6 6.8-1.2 7.6-4l-.4 2.2c-.5 3.1 2.1 6.3 5.9 6.9 3 .5 5.9-.7 7.2-2.7l-.1.6c-.5 3.1 2.1 6.3 5.9 6.9 3.5.6 6.7-1 7.7-3.7l-.2 1.1c-.5 3.1 2.1 6.3 5.9 6.9 3.8.7 7.4-1.4 7.9-4.5l1.1-6.4-.9 7.8c-.4 3.2 2.5 6.1 6.3 6.6 3.2.4 6.2-1.2 7.3-3.6-.2 3.1 2.6 5.9 6.3 6.3 3.8.4 7.3-1.8 7.6-5l1-8.6-.5 9.7c-.2 3.2 2.9 6 6.7 6.2 3.9.2 7.2-2.2 7.3-5.4l.5-9.3-.2 10c-.1 3.2 3 5.9 6.9 6 3.6.1 6.6-2.1 7.1-4.9v.4c-.1 3.2 3 5.9 6.9 6 3.4.1 6.3-1.8 7-4.4.2 3 3.2 5.4 6.9 5.5 3.9.1 7.1-2.4 7.2-5.6l.3-14.4h.1l-.3 14.9c-.1 3.2 3 5.9 6.9 6 3.9.1 7.1-2.4 7.2-5.6l.1-3.4.1 3.7c.1 3.2 3.3 5.7 7.1 5.7 3.6-.1 6.6-2.4 6.9-5.4.4 2.9 3.5 5.1 7.1 5.1 3.5-.1 6.4-2.3 6.9-5.1.7 2.6 3.6 4.6 7 4.5 3.9-.1 7-2.7 6.9-5.9v-.1c.4 2.9 3.5 5.2 7.1 5.1 3.9-.1 7-2.7 6.9-5.9v-.1c.9 2.4 3.7 4 6.8 4 3.8-.1 6.8-2.6 6.9-5.6.8 2.5 3.6 4.4 6.9 4.4 3.9-.1 7-2.7 6.9-5.9.8 2.5 3.6 4.4 6.9 4.3 3.9-.1 7-2.7 6.9-5.9l-.1-5.5.3 4.1c.2 3.2 3.5 5.6 7.4 5.4 3.9-.2 6.8-3 6.6-6.2l-.1-1.7c.5 3 3.7 5.1 7.3 4.9 3.9-.3 6.8-3.1 6.6-6.3l-.4-6.1.7 5.5c.4 3.2 3.9 5.4 7.7 4.9 3.8-.5 6.7-3.5 6.3-6.6l-.1-1.1c.8 2.7 4 4.5 7.5 4.1 3.8-.5 6.7-3.5 6.3-6.6l-.2-1.4c.9 2.6 4 4.4 7.5 3.9 3.8-.5 6.7-3.5 6.3-6.6l-.2-1.5c1.1 2.5 4.1 4 7.5 3.5 3.8-.6 6.6-3.7 6.1-6.8l-2.2-14.9h.1l2.1 13.7c.5 3.2 4 5.2 7.9 4.6 3.9-.6 6.7-3.7 6.2-6.8l-.9-6 .8 4.2c.6 3.1 4.1 5.1 7.7 4.4 3.7-.7 6.2-3.8 5.6-7l-1.9-10.2 2 8.1c.8 3.1 4.3 4.9 7.9 4 3.6-.9 5.9-4.2 5.2-7.3l-.5-2a6.5 6.5 0 0 0 7.4 2.8c7.7-2.6.7-25 .9-25.1zm-12.4 6.9zm-394.1 12.1l1-6.3-1 6.3zm39.8 17l1.3-9 .2.1-1.5 8.9z" fill="#374e68"/>
</svg>
