<?xml version="1.0" encoding="utf-8"?>
<!-- Generator: Adobe Illustrator 21.1.0, SVG Export Plug-In . SVG Version: 6.00 Build 0)  -->
<svg version="1.1" id="Calque_3" xmlns="http://www.w3.org/2000/svg" xmlns:xlink="http://www.w3.org/1999/xlink" x="0px" y="0px"
	 viewBox="0 0 600 600" style="enable-background:new 0 0 600 600;" xml:space="preserve">
<style type="text/css">
	.st0{fill:#374E68;}
</style>
<path class="st0" d="M515.1,397.1c4.1-68.2-37-98.5-37-98.5c0-57.1-53.3-86.1-53.3-86.1c-12.8-48.3-50.4-60.6-54.5-64.4l-2.3-15.3
	c-54.4,11.5-79.9,11.5-136.4,0.3l-2.3,15c-4.2,3.9-41.4,16.1-54.3,64.4c0,0-53.3,29-53.3,86.1c0,0-39.7,24.3-37,97.9
	c0,0-4.7,20.3,3.4,21.9c3,0.6,5.9-0.9,7.1-3.2l-0.5,3c-0.5,3.2,2.1,6.2,5.8,6.8v0c3.7,0.6,7.1-1.5,7.5-4.7l-0.5,3.5
	c-0.5,3.2,2.1,6.2,5.8,6.8v0c3.7,0.6,7.1-1.5,7.5-4.7l1.6-10.9l0,0l-2,13.5c-0.5,3.2,2.3,6.2,6.2,6.8c3.9,0.6,7.4-1.5,7.9-4.6
	l1.6-10.9c0,0,0,0,0,0l-1.9,12.7c-0.5,3.2,2.3,6.2,6.1,6.8c3.5,0.6,6.8-1.2,7.6-4l-0.4,2.2c-0.5,3.1,2.1,6.3,5.9,6.9v0
	c3,0.5,5.9-0.7,7.2-2.7l-0.1,0.6c-0.5,3.1,2.1,6.3,5.9,6.9c3.5,0.6,6.7-1,7.7-3.7l-0.2,1.1c-0.5,3.1,2.1,6.3,5.9,6.9
	c3.8,0.7,7.4-1.4,7.9-4.5l1.1-6.4l-0.9,7.8c-0.4,3.2,2.5,6.1,6.3,6.6c3.2,0.4,6.2-1.2,7.3-3.6c-0.2,3.1,2.6,5.9,6.3,6.3
	c3.8,0.4,7.3-1.8,7.6-5l1-8.6l-0.5,9.7c-0.2,3.2,2.9,6,6.7,6.2c3.9,0.2,7.2-2.2,7.3-5.4l0.5-9.3l-0.2,10c-0.1,3.2,3,5.9,6.9,6
	c3.6,0.1,6.6-2.1,7.1-4.9l0,0.4c-0.1,3.2,3,5.9,6.9,6c3.4,0.1,6.3-1.8,7-4.4c0.2,3,3.2,5.4,6.9,5.5c3.9,0.1,7.1-2.4,7.2-5.6
	l0.3-14.4c0,0,0.1,0,0.1,0l-0.3,14.9c-0.1,3.2,3,5.9,6.9,6h0c3.9,0.1,7.1-2.4,7.2-5.6l0.1-3.4l0.1,3.7c0.1,3.2,3.3,5.7,7.1,5.7
	c3.6-0.1,6.6-2.4,6.9-5.4c0.4,2.9,3.5,5.1,7.1,5.1c3.5-0.1,6.4-2.3,6.9-5.1c0.7,2.6,3.6,4.6,7,4.5c3.9-0.1,7-2.7,6.9-5.9l0-0.1
	c0.4,2.9,3.5,5.2,7.1,5.1c3.9-0.1,7-2.7,6.9-5.9l0-0.1c0.9,2.4,3.7,4,6.8,4h0c3.8-0.1,6.8-2.6,6.9-5.6c0.8,2.5,3.6,4.4,6.9,4.4
	c3.9-0.1,7-2.7,6.9-5.9c0.8,2.5,3.6,4.4,6.9,4.3c3.9-0.1,7-2.7,6.9-5.9l-0.1-5.5l0.3,4.1c0.2,3.2,3.5,5.6,7.4,5.4
	c3.9-0.2,6.8-3,6.6-6.2l-0.1-1.7c0.5,3,3.7,5.1,7.3,4.9l0,0c3.9-0.3,6.8-3.1,6.6-6.3l-0.4-6.1l0.7,5.5c0.4,3.2,3.9,5.4,7.7,4.9
	c3.8-0.5,6.7-3.5,6.3-6.6l-0.1-1.1c0.8,2.7,4,4.5,7.5,4.1c3.8-0.5,6.7-3.5,6.3-6.6l-0.2-1.4c0.9,2.6,4,4.4,7.5,3.9
	c3.8-0.5,6.7-3.5,6.3-6.6l-0.2-1.5c1.1,2.5,4.1,4,7.5,3.5h0c3.8-0.6,6.6-3.7,6.1-6.8l-2.2-14.9c0,0,0.1,0,0.1,0l2.1,13.7
	c0.5,3.2,4,5.2,7.9,4.6c3.9-0.6,6.7-3.7,6.2-6.8l-0.9-6l0.8,4.2c0.6,3.1,4.1,5.1,7.7,4.4h0c3.7-0.7,6.2-3.8,5.6-7l-1.9-10.2l2,8.1
	c0.8,3.1,4.3,4.9,7.9,4c3.6-0.9,5.9-4.2,5.2-7.3l-0.5-2c1.3,2.3,4.4,3.7,7.4,2.8C521.9,419.6,514.9,397.2,515.1,397.1z M502.7,404
	L502.7,404C502.7,404,502.7,404,502.7,404C502.7,404,502.7,404,502.7,404z M108.6,416.1l1-6.3l0,0L108.6,416.1z M148.4,433.1l1.3-9
	c0.1,0,0.1,0,0.2,0.1L148.4,433.1z"/>
</svg>
