<svg version="1" id="Calque_3" xmlns="http://www.w3.org/2000/svg" viewBox="0 0 600 600">
  <style>
    .st0{fill:#374e68}
  </style>
  <path class="st0" d="M279 120c-8-6-19-3-22-3l-22-5c1 0-17 60-32 94-16-34-34-94-34-94l-22 6c-2-1-14-3-22 3-14 10-66 255-66 258 10 7 25 8 46 7l1-1 35-171 3 29c2 13-15 74-15 74 21 11 45 18 68 19l6-38 7 38c23-1 47-9 68-20 0 0-18-61-16-74l3-29c8 43 36 168 37 171l1 1c21 1 40-1 50-9 0-2-59-246-74-256z"/>
  <path class="st0" d="M464 248l-1-18c-36 7-87 6-122-3l-3 17c-87 83-85 206-85 206 66 48 235 46 297-1-1 0 1-119-86-201z"/>
</svg>
