<?xml version="1.0" encoding="utf-8"?>
<!-- Generator: Adobe Illustrator 21.1.0, SVG Export Plug-In . SVG Version: 6.00 Build 0)  -->
<svg version="1.1" id="Calque_3" xmlns="http://www.w3.org/2000/svg" xmlns:xlink="http://www.w3.org/1999/xlink" x="0px" y="0px"
	 viewBox="0 0 600 600" style="enable-background:new 0 0 600 600;" xml:space="preserve">
<style type="text/css">
	.st0{fill:#374E68;}
</style>
<g>
	<path class="st0" d="M279.2,119.9c-8.1-5.5-19.6-3.4-22-2.9l-21.7-5.1c0,0-17.8,60.3-32.7,93.7c-15.4-33.2-34-93.2-34-93.2
		l-21.6,5.4c-2.4-0.5-13.9-2.4-21.9,3.2c-14.7,10.3-65.9,255.2-66.1,257.5c9.9,7.2,25.2,8.7,45.6,7.8c0.2-0.4,0.5-0.7,0.7-1.2
		c1-2.6,27.9-128.5,35-170.9c1.4,11.5,2.8,22.6,3.7,29.1c1.7,12.2-14.8,74-14.8,74c20.5,10.9,45.1,17.8,68.1,18.5l5.9-37.5l6.4,37.4
		c23-1,47.4-8.3,67.8-19.5c0,0-17.3-61.6-15.8-73.7c0.8-6.5,2.1-17.7,3.3-29.2c7.7,42.4,36.4,167.8,37.4,170.4
		c0.2,0.4,0.5,0.8,0.7,1.2c20.4,0.6,39.7-1.1,49.6-8.5C352.8,374.1,294.1,130,279.2,119.9z"/>
	<path class="st0" d="M463.5,247.5l-1-17.8c-35.1,7.2-86.7,6.4-121.4-2.2l-2.9,16.6C251,326.8,253,449.7,253,449.7
		c66.1,48.1,235.2,46.3,296.5-1C549.4,448.7,551.2,329.7,463.5,247.5z"/>
</g>
</svg>
