<svg version="1" id="Calque_5" xmlns="http://www.w3.org/2000/svg" viewBox="0 0 600 600">
  <style>
    .st0{fill:#374e68}.st1{fill:#fff}
  </style>
  <path class="st0" d="M419 185s-13-19-40 13c0 0-10-41-26-40s-41 12-52 30c-10 17-85 120-111 122 0 0-62 13-66 41-3 24-1 23-1 23s-4 9 1 14 49 17 75 14c0 0-10 24-4 37 8 18 26 18 42 18 27 2 73-5 83-10s26-6 39-40c8-22 20-53 33-78l1 32 9 7 7-4c1-41 12-69 16-78 10-9 14-15 17-22 5-10 11-21-23-79z"/>
  <path class="st1" d="M252 365c-4-5-4-12 1-17l68-75 68-77c15-17 28-10 28 2s-23 76-31 89c-8 15-33 78-50 89-18 11-49 9-57 6-7-3-19-7-27-16v-1zM353 164h-9c-10 2-26 11-32 18-8 9-25 36-28 41-54 81-89 89-90 96-3 10 11 25 36 19 24-7 83-81 92-97l29-51c3-7 16-23 2-26z"/>
  <path class="st0" d="M288 208s2 5-3 6c-19 1-48 14-50 26-4 15 57 29 96 0l3-14c0 1-33 34-87 12s41-30 41-30z"/>
  <path class="st0" d="M356 226s-51 32-49 51 51 36 89 5l3-19s-33 42-77 14c-30-20 34-51 34-51zM230 227l5 17 3-10z"/>
  <path class="st0" d="M242 230s-5 3 1 7-4 4-4 4l-4-13 7 2z"/>
</svg>
