<svg id="Calque_4" xmlns="http://www.w3.org/2000/svg" viewBox="0 0 600 600">
  <style>
    .st0{fill:#374e68}
  </style>
  <path class="st0" d="M413.1 97.9c-1.9-.8-4.1-.1-4.8 1.6l-.6 1.4 1.5-4.1c.6-1.7-.5-3.7-2.4-4.4-2-.7-4.1.1-4.7 1.8l.7-1.9c.6-1.7-.5-3.7-2.4-4.4-2-.7-4.1.1-4.7 1.8l-2.2 6.2 2.7-7.6c.6-1.7-.6-3.7-2.6-4.5-2.1-.8-4.3 0-4.9 1.7l-2.8 7.7 3.1-8.7c.6-1.7-.5-3.7-2.6-4.5-2-.7-4.1 0-4.8 1.6a4.2 4.2 0 0 0-2.6-3.1c-2-.8-4.2 0-4.9 1.7l-.5 1.4c.7-1.7-.5-3.7-2.5-4.5-2-.8-4.2 0-4.9 1.7l-.7 1.9c.7-1.7-.5-3.7-2.5-4.5-2-.8-4.2 0-4.9 1.7l-.6 1.5c0-1.5-1.1-2.9-2.9-3.5-2.1-.7-4.2.2-4.8 1.9l-2.7 8.3-118.8 332.8-65.5 27c-17 7-25.2 26.7-18.2 43.8l1.1 2.8c7 17 26.7 25.2 43.8 18.2l88.9-36.6a12 12 0 0 0 7.4-10.6l125.8-352 .2-.4 3.6-8.7c.6-1.7-.4-3.8-2.3-4.5zm-42-10.1l1.1-2.9-1.1 2.9z"/>
  <path class="st0" d="M413.8 114.1c2.2-1.3 5.2-1.5 7.6-1a16 16 0 0 1 7.6 4.3c1.3 1.3 4.3 4.2 3.4 6.4-1.2 2.8-6.8 2-9 1.2-2.7-.9-13.3-8.1-9.4-11.2 1.5-1.2-.6-3.3-2.1-2.1-8.3 6.6 14.3 23.4 22.3 14.7 4.7-5.1-3.8-12.5-7.7-14.6-4.3-2.3-10-2.8-14.3-.4-1.6 1.1-.1 3.7 1.6 2.7z"/>
  <path class="st0" d="M410.3 110.8a54 54 0 0 0-1.8 13.3c-.3 9.5 2.5 17.6 5.4 26.5 3.8 11.6 5.6 24.1 6.1 36.3.1 1.9 3.1 1.9 3 0-.5-11-2-22.3-5-32.9-2.5-9.2-6.4-17.2-6.6-27-.1-5.1.3-10.5 1.7-15.4.7-1.8-2.2-2.6-2.8-.8z"/>
</svg>
