<svg version="1" id="Calque_3" xmlns="http://www.w3.org/2000/svg" viewBox="0 0 600 600">
  <style>
    .st1{fill:#fff}
  </style>
  <path d="M413 343l10-50c-19-67-20-142-18-167l-42-9s-35 104-65 162c-30-58-64-159-64-159l-42 9c2 25 1 99-18 166l10 51c1 11-7 54-16 85l4 3c13 21 89 57 115 71l12-54 10 55c27-14 102-54 116-74l3-4c-8-30-16-74-15-85z" fill="#374e68"/>
  <circle class="st1" cx="339" cy="311" r="8"/>
  <circle class="st1" cx="333" cy="360" r="8"/>
  <circle class="st1" cx="329" cy="410" r="8"/>
  <circle class="st1" cx="256" cy="309" r="8"/>
  <circle class="st1" cx="261" cy="360" r="8"/>
  <circle class="st1" cx="267" cy="411" r="8"/>
</svg>
