<?xml version="1.0" encoding="utf-8"?>
<!-- Generator: Adobe Illustrator 21.1.0, SVG Export Plug-In . SVG Version: 6.00 Build 0)  -->
<svg version="1.1" xmlns="http://www.w3.org/2000/svg" xmlns:xlink="http://www.w3.org/1999/xlink" x="0px" y="0px"
	 viewBox="0 0 600 600" style="enable-background:new 0 0 600 600;" xml:space="preserve">
<style type="text/css">
	.st0{display:none;}
	.st1{display:inline;opacity:0.19;fill:none;stroke:#1D1D1B;stroke-miterlimit:10;}
	.st2{fill:#374E68;}
	.st3{fill:#FFFFFF;}
</style>
<g id="Calque_1" class="st0">
	<line class="st1" x1="-107.7" y1="116.3" x2="704.6" y2="116.3"/>
	<line class="st1" x1="-105.8" y1="309.5" x2="706.5" y2="309.5"/>
	<line class="st1" x1="-104.6" y1="505.8" x2="707.7" y2="505.8"/>
	<line class="st1" x1="103.7" y1="717.2" x2="103.7" y2="-95.1"/>
	<line class="st1" x1="296.9" y1="715.3" x2="296.9" y2="-97"/>
	<line class="st1" x1="493.3" y1="714.1" x2="493.3" y2="-98.2"/>
</g>
<g id="Calque_4">
	<g>
		<path class="st2" d="M323.1,349.8c-4.9-5.6-27.9-8.8-27.9-8.8s4.5-7-1.6-9.9c-4.9-2.3-40.5-11.8-53.6-15.2
			c0.6-2,4.8-17.5-3.6-20.1c-5-1.5-9.2,5.8-9.2,5.8s-11.1-13.6-15.6,4.2c0,0-10-11.7-13,4.8c0,0-13.2-10.5-12.8,5.7
			c0,0-11.7-12.8-11.9,5.7c-11.6-11-12,5.8-12,5.8c-12.7-10.2-12.3,6.7-12.3,6.7c-15-7.6-11.7,7.5-11.7,7.5
			c-16.9-7.2-12.8,9.9-12.8,9.9s-8.4-1.1-10.2,3.8c-3.2,8.8,14,15.1,14,15.1l1.7,0.2c-1.1,3.5-16.6,51.5-17.4,57.9
			c-0.8,6.6,7.5,6.6,7.5,6.6s-9.7,21.1-7.5,28.2c3.9,13,15,4.2,15,4.2s7.7,11.6,18.5,0.4c0,0,9.9,15.7,21-0.1
			c0,0,12.5,13.7,20.7-1.9c0,0,12.7,14.8,20.4-2.4c0,0,11.9,13.7,17.9-4.3c0,0,15.8,13.8,15.6-7.4c15.3,12.4,16.3-9,16.3-9
			c18.4,4.6,13.2-12.8,13.2-12.8c18.6,2.7,13-16,13-16c17.6,1.4,12.7-16.5,12.7-16.5c19.4-0.9,11.4-17.7,11.4-17.7
			c15.3-3.1,9.6-15.8,9.6-15.8S332,360,323.1,349.8z"/>
		
			<ellipse transform="matrix(0.8566 -0.5159 0.5159 0.8566 -160.5565 138.9429)" class="st3" cx="169.7" cy="358.4" rx="4.8" ry="4.8"/>
		
			<ellipse transform="matrix(0.3833 -0.9236 0.9236 0.3833 -217.2825 388.9155)" class="st3" cx="182.6" cy="357.2" rx="4.8" ry="4.8"/>
		
			<ellipse transform="matrix(0.9986 -5.370039e-02 5.370039e-02 0.9986 -18.7452 10.9698)" class="st3" cx="194.8" cy="354.3" rx="4.8" ry="4.8"/>
		
			<ellipse transform="matrix(1 -2.807960e-03 2.807960e-03 1 -0.9718 0.5763)" class="st3" cx="204.8" cy="346.4" rx="4.8" ry="4.8"/>
		
			<ellipse transform="matrix(0.9986 -5.370039e-02 5.370039e-02 0.9986 -17.7784 11.9167)" class="st3" cx="212.9" cy="336.8" rx="4.8" ry="4.8"/>
		<path class="st2" d="M471,285.9c1.8-7.2-8.8-27.9-8.8-27.9s8.3-0.4,7.2-7c-0.9-5.4-13.6-39.9-18.3-52.6c2-0.7,17-6.1,14.4-14.5
			c-1.6-5-10-4.2-10-4.2s4.8-17-12.4-10.4c0,0,3.8-14.9-11.4-7.9c0,0,1-16.9-12-7.2c0,0,3.8-17-11.5-6.5c2.3-15.8-11.6-6.4-11.6-6.4
			c1-16.2-12.6-6.2-12.6-6.2c-2.4-16.6-12.8-5.3-12.8-5.3c-3.8-18-15.4-4.8-15.4-4.8s-3.9-7.5-8.9-6.1c-9.1,2.4-4.3,20.1-4.3,20.1
			l0.8,1.5c-3.5,1.1-51.7,16-57.4,19c-5.9,3.1-1.2,9.9-1.2,9.9s-22.8,4.2-27.4,10c-8.4,10.6,5.2,14.7,5.2,14.7s-5.1,13,10.3,15.3
			c0,0-7.2,17.1,12.2,17.1c0,0-4.1,18.1,13.5,15.9c0,0-4.8,18.9,13.7,15.4c0,0-4.5,17.6,13.7,12.2c0,0-2.2,20.9,15.1,8.5
			c-1.4,19.7,16.7,8.2,16.7,8.2c6.8,17.7,18,3.4,18,3.4c8.5,16.8,20.5,1.4,20.5,1.4c9,15.2,20.8,1,20.8,1c11.9,15.3,21-0.8,21-0.8
			c11.3,10.7,18.4-1.2,18.4-1.2S467.8,299,471,285.9z"/>
		
			<ellipse transform="matrix(0.4053 -0.9142 0.9142 0.4053 73.5776 431.3927)" class="st3" cx="368.4" cy="159.1" rx="4.8" ry="4.8"/>
		<ellipse transform="matrix(0.9763 -0.2163 0.2163 0.9763 -27.6331 85.4741)" class="st3" cx="376.7" cy="169" rx="4.8" ry="4.8"/>
		
			<ellipse transform="matrix(0.7869 -0.6171 0.6171 0.7869 -27.1477 276.036)" class="st3" cx="386.1" cy="177.3" rx="4.8" ry="4.8"/>
		
			<ellipse transform="matrix(0.8173 -0.5763 0.5763 0.8173 -31.4935 262.5957)" class="st3" cx="398.3" cy="181" rx="4.8" ry="4.8"/>
		
			<ellipse transform="matrix(0.7869 -0.6171 0.6171 0.7869 -24.8201 292.3172)" class="st3" cx="410.8" cy="182.1" rx="4.8" ry="4.8"/>
	</g>
</g>
</svg>
