<?xml version="1.0" encoding="utf-8"?>
<!-- Generator: Adobe Illustrator 21.1.0, SVG Export Plug-In . SVG Version: 6.00 Build 0)  -->
<svg version="1.1" id="Calque_3" xmlns="http://www.w3.org/2000/svg" xmlns:xlink="http://www.w3.org/1999/xlink" x="0px" y="0px"
	 viewBox="0 0 600 600" style="enable-background:new 0 0 600 600;" xml:space="preserve">
<style type="text/css">
	.st0{fill:#374E68;}
</style>
<path class="st0" d="M434.8,362.8c9.7-13.1,12.8-28.7,12.8-43c0-44.8-46.3-119.1-46.3-119.1l-0.2,0c0,0,0.1,0,0.1,0l-9.3-29.8
	c-33.3,6.1-61.3,8.1-91.4,8.5c-30.1-0.4-58.1-2.3-91.4-8.5l-8.4,30.1c0,0,0.1,0,0.1,0l-0.2,0c0,0-47.2,74-47.2,118.8
	c0,14.2,3.1,29.9,12.8,43c-0.9,0.6-5.8,16.7-5.8,16.7c-0.7,2.7,1.1,5.7,4.1,6.5h0c3,0.9,6-0.6,6.8-3.4l0.7-2.6l-1.5,6.9
	c-0.6,2.7,1.4,5.6,4.4,6.4c3,0.8,6-0.9,6.6-3.6l2.5-11l-3.1,14c-0.6,2.7,1.4,5.6,4.4,6.4c3,0.8,6-0.9,6.6-3.6l2.6-11.6l0,0
	l-3.1,13.9c-0.6,2.7,1.5,5.7,4.7,6.5c3.2,0.8,6.3-0.8,6.9-3.5l2.9-13c0,0,0,0,0.1,0c-0.1,0.1-0.1,0.3-0.2,0.4l-3.2,14.2
	c-0.6,2.7,1.5,5.7,4.6,6.5c3.1,0.8,6.1-0.7,6.8-3.4c0.5,2,2.1,3.7,4.4,4.3c3.1,0.9,6.2-0.7,6.9-3.4l0.6-2.3
	c-0.7,2.7,1.3,5.7,4.5,6.5s6.2-0.7,6.9-3.4l0.7-3c-0.7,2.7,1.3,5.7,4.5,6.5h0c3.1,0.9,6.2-0.7,6.9-3.4l0.6-2.4
	c0.3,2.3,2.2,4.3,4.8,4.8c3.2,0.7,6.2-1.1,6.7-3.8c0,0,2.7-16.2,2.3-17.1c9.1-2.7,17.3-7.5,22.9-15.7c8.8-12.9,12.6-28,14-41
	c1.4,13,5.1,28.1,14,41c5.6,8.2,13.8,13,22.9,15.7c-0.4,0.9,2.3,17.1,2.3,17.1c0.5,2.8,3.5,4.5,6.7,3.8c2.6-0.6,4.5-2.6,4.8-4.8
	l0.6,2.4c0.7,2.7,3.8,4.3,6.9,3.4h0c3.1-0.9,5.1-3.8,4.5-6.5l0.7,3c0.7,2.7,3.8,4.3,6.9,3.4c3.1-0.9,5.1-3.8,4.5-6.5l0.6,2.3
	c0.7,2.7,3.8,4.3,6.9,3.4c2.3-0.6,4-2.4,4.4-4.3c0.7,2.6,3.7,4.2,6.8,3.4c3.1-0.8,5.2-3.7,4.6-6.5l-3.2-14.2c0-0.2-0.1-0.3-0.2-0.4
	c0,0,0,0,0.1,0l2.9,13c0.6,2.7,3.7,4.3,6.9,3.5s5.3-3.7,4.7-6.5l-3.1-13.9l0,0l2.6,11.6c0.6,2.7,3.6,4.4,6.6,3.6
	c3-0.8,5-3.6,4.4-6.4l-3.1-14l2.5,11c0.6,2.7,3.6,4.4,6.6,3.6c3-0.8,5-3.6,4.4-6.4L429,380l0.7,2.6c0.7,2.7,3.8,4.2,6.8,3.4h0
	c3-0.9,4.8-3.8,4.1-6.5C440.6,379.5,435.8,363.4,434.8,362.8z"/>
</svg>
