<?xml version="1.0" encoding="utf-8"?>
<!-- Generator: Adobe Illustrator 21.1.0, SVG Export Plug-In . SVG Version: 6.00 Build 0)  -->
<svg version="1.1" id="Calque_3" xmlns="http://www.w3.org/2000/svg" xmlns:xlink="http://www.w3.org/1999/xlink" x="0px" y="0px"
	 viewBox="0 0 600 600" style="enable-background:new 0 0 600 600;" xml:space="preserve">
<style type="text/css">
	.st0{fill:#374E68;}
	.st1{fill:#FFFFFF;}
</style>
<g>
	<path class="st0" d="M491.8,496.8c0,0-4.1-9.2-4.3-9.5c2.9-7.3,5.1-18.9,1.3-35.8c-3.4-14.9-53.3-175.9-62.4-239.8
		c-1.4-9.7-4-53.1-24.6-67.2c-11.2-7.7-27.2-4.9-30.5-4.2l-30-7.3c-2.6-3-6.8-9.3-8-20.7c0,0,0,0,0,0c-19.1,1.7-36,11.3-36,11.3
		c-18.7-8.9-36.5-11.7-36.5-11.7c-1.1,11.6-5.4,18.1-8,21.1l-30,7.3c-3.3-0.7-19.3-3.5-30.5,4.2c-20.6,14.2-23.2,57.6-24.6,67.2
		c-9.2,63.9-58.5,223.3-61.9,238.2c-3.3,14.3-2,25.2,0.3,33c-0.2,0.3-5.2,9.1-5.2,9.1c-0.7,1.7,0.2,4.3,1.6,4.9
		c1.4,0.6,4.2-0.5,4.8-2.2l-0.9,2.7c-0.6,1.7,0.1,3.6,1.6,4.1c1.5,0.6,3.1-0.4,3.7-2.1l-0.7,1.9c-0.6,1.7,0.1,3.6,1.6,4.1
		c1.5,0.6,3.1-0.4,3.7-2.1l-0.5,1.4c-0.6,1.7,0.2,3.6,1.7,4.2c1.5,0.6,3.3-0.3,3.9-2.1l-0.3,1c-0.6,1.7,0.1,3.6,1.7,4.2
		c1.5,0.6,3.2-0.3,3.8-2c0,1.2,0.7,2.4,1.8,2.8c1.5,0.6,3.2-0.3,3.9-2l0.5-1.4c-0.6,1.7,0.1,3.6,1.6,4.2c1.5,0.6,3.2-0.3,3.9-2
		l0.7-1.9c-0.6,1.7,0.1,3.6,1.6,4.2l0,0c1.5,0.6,3.2-0.3,3.9-2l0.6-1.5c-0.1,1.4,0.8,2.4,1.9,3.2c1.9,1.3,4.3,0.7,5-2.2
		c0,0,1.9-10.4,1.8-11c5.6-3.7,11.9-9.7,17.6-19.3c6.6-11.2,31.1-148.3,41.4-207.3c1.9,16,3.7,31.5,4.9,40.5
		c2.2,16.9-21.3,102.6-21.3,102.6c28.4,15.4,62.4,25.2,94.3,26.4l6.5-18.9l6.5,18.9c31.9-1.2,66-11,94.3-26.4
		c0,0-23.5-85.7-21.3-102.6c1.2-9,3-24.5,4.9-40.5c10.3,58.9,34.8,196.1,41.4,207.3c4.8,8.2,10.2,13.8,15.2,17.5
		c-0.1,0.5,0.9,11.1,0.9,11.1c0.4,1.8,2.6,3.4,4.1,3.1c1.5-0.3,3.2-2.8,2.7-4.5l0.8,2.7c0.5,1.8,2.1,2.9,3.6,2.5
		c1.5-0.4,2.3-2.1,1.9-3.9l0.5,1.9c0.5,1.8,2.1,2.9,3.6,2.5c1.5-0.4,2.3-2.1,1.9-3.9l0.4,1.4c0.5,1.8,2.2,2.9,3.8,2.5
		c1.6-0.4,2.5-2.2,2-3.9l0.3,1c0.5,1.8,2.2,2.9,3.7,2.5c1.5-0.4,2.4-2.1,2-3.8c0.7,1,1.9,1.6,3.1,1.3c1.6-0.4,2.5-2.1,2-3.8L475,506
		c0.5,1.8,2.1,2.9,3.7,2.6c1.6-0.4,2.5-2.1,2-3.8l-0.5-1.9c0.5,1.8,2.1,2.9,3.7,2.6v0c1.6-0.4,2.5-2.1,2-3.8l-0.4-1.6
		c0.7,1.2,2.1,1.5,3.4,1.5C491.3,501.3,492.9,499.5,491.8,496.8z M112.4,497.5l0.4-1.2l0,0L112.4,497.5z"/>
	<circle class="st1" cx="295.4" cy="153.5" r="3.1"/>
	<circle class="st1" cx="295.4" cy="200.8" r="3.1"/>
	<circle class="st1" cx="295.4" cy="246.5" r="3.1"/>
	<circle class="st1" cx="295.4" cy="298.7" r="3.1"/>
	<circle class="st1" cx="295.5" cy="345.9" r="3.1"/>
	<circle class="st1" cx="295.5" cy="391.6" r="3.1"/>
</g>
</svg>
