<?xml version="1.0" encoding="utf-8"?>
<!-- Generator: Adobe Illustrator 21.1.0, SVG Export Plug-In . SVG Version: 6.00 Build 0)  -->
<svg version="1.1" id="Calque_3" xmlns="http://www.w3.org/2000/svg" xmlns:xlink="http://www.w3.org/1999/xlink" x="0px" y="0px"
	 viewBox="0 0 600 600" style="enable-background:new 0 0 600 600;" xml:space="preserve">
<style type="text/css">
	.st0{fill:#374E68;}
</style>
<path class="st0" d="M503.8,480.2c-1.9-52.7-81.2-330.6-100.6-345c-10.6-7.9-23.3-10.3-33.5-12.4l-22.2-6c0,0-4,42.6-46,42.6v0
	c-0.2,0-0.3,0-0.5,0v0c0,0-0.1,0-0.1,0c0,0-0.1,0-0.1,0v0c-0.2,0-0.3,0-0.5,0v0c-42,0-46-42.6-46-42.6l-22.2,6
	c-10.2,2.1-22.9,4.5-33.5,12.4c-19.4,14.5-98.6,292.4-100.6,345c-0.4,5.6,2.1,10.6,6.3,14.6c11.2-0.8,24.4,1.2,38.4,9.6
	c7.1-1.5,13.5-5,17.9-10.9c24.7-50.3,47.2-173.7,56.6-233.4c1.9,16.2,3.7,31.9,4.9,41c0.3,2.2-1.5,10.9-1.9,15
	c14.5,2.7,58.3-1.4,80.7-67.3c22.5,65.9,67.2,70,81.7,67.3c-0.4-4.1-3.1-12.9-2.9-15c1.2-9.1,3-24.8,4.9-41
	c9.4,59.8,31.9,183.1,56.6,233.4c4.4,5.9,10.8,9.4,17.9,10.9c13.9-8.4,27.2-10.4,38.4-9.6C501.7,490.8,504.2,485.8,503.8,480.2z"/>
</svg>
