<?xml version="1.0" encoding="utf-8"?>
<!-- Generator: Adobe Illustrator 21.1.0, SVG Export Plug-In . SVG Version: 6.00 Build 0)  -->
<svg version="1.1" id="Calque_3" xmlns="http://www.w3.org/2000/svg" xmlns:xlink="http://www.w3.org/1999/xlink" x="0px" y="0px"
	 viewBox="0 0 600 600" style="enable-background:new 0 0 600 600;" xml:space="preserve">
<style type="text/css">
	.st0{fill:#374E68;}
</style>
<path class="st0" d="M448.8,377.4c10.4-3.7,16-15.3,12.3-25.7v0c-1.1-3.2-3.5-5.6-6.4-6.9c-10.1-38.3-55.1-208-62.2-226.4
	c-6.9-17.8-10.7-27.1-24.9-23.4l-30.9-9.2l-0.7,0c0.1-0.6,0.2-1.3,0.2-2v-8.1c0-3.7-2.2-8.2-5.2-10.1c-14.1-8.9-51.8-7.4-61.3-0.8
	c-4.4,3.1-6.8,6.4-6.8,10.9v8.1c0,0.8,0.1,1.5,0.2,2.3l-32.4,8.8c-15.9-4.2-19.6,2.9-27.6,23.4c-7.3,18.9-54.8,198.3-63.1,229.4
	c-2.8,1.3-5.1,3.7-6.2,6.8v0c-3.7,10.4,1.8,22,12.3,25.7l9,3.2c-18.1,54.6-19,95.5-19,95.5c32.5,31.4,96.1,52.6,161.3,52.6
	c78.8,0,130.9-20.8,166.9-52.6c0,0-2.6-42.6-22.8-99.1L448.8,377.4z M234.7,246.5c-8.6,9.6-17.5,19.3-24.6,29.1l18.7-81.4l6.4,37.2
	L234.7,246.5z M362.8,245.7l-0.8-15l6.1-36.2l16.4,77.1C378.3,263.1,369.9,253.9,362.8,245.7z"/>
<path class="st0" d="M468,444.5c-6.9-8.5-10.8-4.8-10.8-4.8l-158.1,54.5l-0.3,22.2l-0.3-22.2l-155.8-54.5c0,0-3.8-3.7-10.6,4.8
	c-6.8,8.5-10.3,34-4.2,42.6c13.1,18.6,57.6,55,161.6,58.8c7.1,0.3,10.5,0.3,17.7,0c105.7-4.1,151.7-39.1,165-57.7
	C478.4,479.6,474.9,453,468,444.5z"/>
</svg>
