<?xml version="1.0" encoding="utf-8"?>
<!-- Generator: Adobe Illustrator 21.1.0, SVG Export Plug-In . SVG Version: 6.00 Build 0)  -->
<svg version="1.1" id="Calque_5" xmlns="http://www.w3.org/2000/svg" xmlns:xlink="http://www.w3.org/1999/xlink" x="0px" y="0px"
	 viewBox="0 0 600 600" style="enable-background:new 0 0 600 600;" xml:space="preserve">
<style type="text/css">
	.st0{fill:#374E68;}
	.st1{fill:#FFFFFF;}
</style>
<g>
	<path class="st0" d="M396.2,391.7c0,0-9-35.7-9-50.2c0-14.5,3.6-16.2,20.9-85c9.7-38.7,5.3-60.4-4-73.2l0.6-1.1l18.6-55.7
		l-22.3-8.1l-17.2,49.4c-1.9-0.8-3.8-1.5-5.6-2.2c-29.5-10.4-79.4,7.2-79.4,7.2l-0.9,0.2l-0.9-0.2c0,0-49.9-17.6-79.4-7.2
		c-1.8,0.6-3.7,1.4-5.6,2.2l-17.2-49.4l-22.3,8.1l18.6,55.7l0.6,1.1c-9.3,12.8-13.7,34.5-4,73.2c17.3,68.9,20.9,70.6,20.9,85
		c0,14.5-9,50.2-9,50.2l-36.4,40.8c0,0,28.5,53.6,134.9,55.5c106.4-2,134.9-55.5,134.9-55.5L396.2,391.7z"/>
	<circle class="st1" cx="296.9" cy="211.2" r="3"/>
	<circle class="st1" cx="296.9" cy="255.2" r="3"/>
	<circle class="st1" cx="296.9" cy="305.4" r="3"/>
	<circle class="st1" cx="296.9" cy="350.9" r="3"/>
	<circle class="st1" cx="297.7" cy="394.9" r="3"/>
	<circle class="st1" cx="296.9" cy="438.9" r="3"/>
</g>
</svg>
