<?xml version="1.0" encoding="utf-8"?>
<!-- Generator: Adobe Illustrator 21.1.0, SVG Export Plug-In . SVG Version: 6.00 Build 0)  -->
<svg version="1.1" id="Calque_3" xmlns="http://www.w3.org/2000/svg" xmlns:xlink="http://www.w3.org/1999/xlink" x="0px" y="0px"
	 viewBox="0 0 600 600" style="enable-background:new 0 0 600 600;" xml:space="preserve">
<style type="text/css">
	.st0{fill:#374E68;}
</style>
<path class="st0" d="M496.3,186.8c-9.7-11.2-37.5-61.1-49.6-68.5c-12.1-7.5-31.5,3.7-31.5,3.7L358.7,104c0,0-17.3,20.2-55.4,21.6
	c-38.3-1.4-59-21.6-59-21.6L196.9,122c0,0-19.4-11.2-31.5-3.7c-12.1,7.5-39.9,57.3-49.6,68.5c-9.7,11.2-3.6,82.2,75,68.5
	c0,0,2.4,24.3,2,67.6c-0.6,59.4-26.9,133.6-26.9,133.6c21.9,41.1,258.4,41.1,280.3,0c0,0-26.3-74.2-26.9-133.6
	c-0.4-43.3,2-67.6,2-67.6C499.9,269,506,198,496.3,186.8z"/>
</svg>
