<?xml version="1.0" encoding="utf-8"?>
<!-- Generator: Adobe Illustrator 21.1.0, SVG Export Plug-In . SVG Version: 6.00 Build 0)  -->
<svg version="1.1" id="Calque_5" xmlns="http://www.w3.org/2000/svg" xmlns:xlink="http://www.w3.org/1999/xlink" x="0px" y="0px"
	 viewBox="0 0 600 600" style="enable-background:new 0 0 600 600;" xml:space="preserve">
<style type="text/css">
	.st0{fill:#374E68;}
</style>
<ellipse transform="matrix(0.1811 -0.9835 0.9835 0.1811 61.761 357.5946)" class="st0" cx="245.6" cy="141.7" rx="16" ry="16"/>
<ellipse transform="matrix(0.1811 -0.9835 0.9835 0.1811 98.2546 377.2892)" class="st0" cx="275.7" cy="129.6" rx="16" ry="16"/>
<ellipse transform="matrix(0.1811 -0.9835 0.9835 0.1811 21.2009 346.5797)" class="st0" cx="218.7" cy="160.6" rx="16" ry="16"/>
<ellipse transform="matrix(0.1811 -0.9835 0.9835 0.1811 -20.4864 342.3174)" class="st0" cx="195.3" cy="183.5" rx="16" ry="16"/>
<ellipse transform="matrix(0.1348 -0.9909 0.9909 0.1348 -55.0422 361.3911)" class="st0" cx="179.4" cy="212.2" rx="16" ry="16"/>
<ellipse transform="matrix(0.1348 -0.9909 0.9909 0.1348 -93.2101 380.017)" class="st0" cx="171" cy="243.4" rx="16" ry="16"/>
<ellipse transform="matrix(0.1348 -0.9909 0.9909 0.1348 -129.8794 400.9173)" class="st0" cx="164.6" cy="274.8" rx="16" ry="16"/>
<ellipse transform="matrix(0.1348 -0.9909 0.9909 0.1348 -160.9378 430.2745)" class="st0" cx="165.9" cy="307.3" rx="16" ry="16"/>
<ellipse transform="matrix(0.1348 -0.9909 0.9909 0.1348 -186.4139 463.3893)" class="st0" cx="172.1" cy="338.4" rx="16" ry="16"/>
<ellipse transform="matrix(0.1348 -0.9909 0.9909 0.1348 -199.4692 502.9787)" class="st0" cx="188.3" cy="365.7" rx="16" ry="16"/>
<ellipse transform="matrix(0.1348 -0.9909 0.9909 0.1348 -208.0023 544.481)" class="st0" cx="207.8" cy="391.3" rx="16" ry="16"/>
<ellipse transform="matrix(0.1348 -0.9909 0.9909 0.1348 -204.7062 587.0811)" class="st0" cx="233.8" cy="410.8" rx="16" ry="16"/>
<ellipse transform="matrix(0.2484 -0.9687 0.9687 0.2484 135.1409 524.1288)" class="st0" cx="405.3" cy="175" rx="16" ry="16"/>
<ellipse transform="matrix(0.2484 -0.9687 0.9687 0.2484 120.0378 561.4556)" class="st0" cx="421.8" cy="203.4" rx="16" ry="16"/>
<ellipse transform="matrix(0.2484 -0.9687 0.9687 0.2484 99.1298 595.7287)" class="st0" cx="433.4" cy="234" rx="16" ry="16"/>
<ellipse transform="matrix(0.2935 -0.9559 0.9559 0.2935 52.87 605.0569)" class="st0" cx="435.8" cy="266.8" rx="16" ry="16"/>
<ellipse transform="matrix(0.2935 -0.9559 0.9559 0.2935 18.6051 622.3391)" class="st0" cx="430.4" cy="298.6" rx="16" ry="16"/>
<ellipse transform="matrix(0.2935 -0.9559 0.9559 0.2935 -16.4771 637.2997)" class="st0" cx="422.9" cy="329.8" rx="16" ry="16"/>
<ellipse transform="matrix(0.2935 -0.9559 0.9559 0.2935 -54.5775 643.6005)" class="st0" cx="408.2" cy="358.7" rx="16" ry="16"/>
<ellipse transform="matrix(0.2935 -0.9559 0.9559 0.2935 -92.3303 643.8307)" class="st0" cx="389.4" cy="384.4" rx="16" ry="16"/>
<ellipse transform="matrix(0.2935 -0.9559 0.9559 0.2935 -127.9525 631.5846)" class="st0" cx="363.3" cy="402.4" rx="16" ry="16"/>
<ellipse transform="matrix(0.2935 -0.9559 0.9559 0.2935 -162.4792 615.039)" class="st0" cx="334.9" cy="417.4" rx="16" ry="16"/>
<ellipse transform="matrix(0.2935 -0.9559 0.9559 0.2935 -191.3299 589.3818)" class="st0" cx="303.1" cy="424.1" rx="16" ry="16"/>
<ellipse transform="matrix(0.2935 -0.9559 0.9559 0.2935 -212.6387 557.6526)" class="st0" cx="271" cy="422.7" rx="16" ry="16"/>
<path class="st0" d="M410.6,83l-10.7-6.7l-11.6,5c-0.6,0.2-1.1-0.3-1-0.8l3.1-12.2l-8.3-9.5c-0.4-0.5-0.1-1.2,0.5-1.2l12.6-0.8
	l6.4-10.8c0.3-0.5,1.1-0.5,1.3,0.1l4.7,11.7l12.3,2.8c0.6,0.1,0.8,0.9,0.3,1.3l-9.7,8.1l1.2,12.5C411.7,82.9,411.1,83.3,410.6,83z"
	/>
<path class="st0" d="M302,444.9c-11.1-4.6-31.2,0.7-43.1,4.6c-0.6-2.1-1.9-3.7-3.9-4.4l-20.4-6.9c-1.9-0.6-4-0.2-5.6,1
	c-7.1-10.3-19.8-26.5-31.4-29.5c-17.3-4.5-40.2,71.3-29.1,76c14.3,6.1,34.4,2.5,45.3-0.3c0.7,1.8,1.9,3.2,3.7,3.7l20.4,6.9
	c1.8,0.6,3.7,0.2,5.3-0.8c7,8.8,20.9,24,36.1,27.8C290.9,526.1,318.5,451.8,302,444.9z"/>
<g>
	<path class="st0" d="M246.7,437.1c-0.3,0-0.5-0.1-0.8-0.3c-0.9-0.5-1.4-1.7-1.5-3.3c-0.1-1.4,0.2-3.1,0.8-4.6
		c0.6-1.5,1.4-2.8,2.4-3.6c1-0.9,2.1-1,2.9-0.5c0.9,0.5,1.4,1.7,1.5,3.3c0.1,1.4-0.2,3.1-0.8,4.6l0,0
		C250.1,435.6,248.2,437.3,246.7,437.1z M249.4,426.4c-0.5-0.1-1,0.3-1.3,0.5c-0.7,0.6-1.3,1.6-1.8,2.7c-0.5,1.2-0.7,2.4-0.6,3.5
		c0,0.5,0.2,1.5,0.8,1.9c1,0.6,2.5-0.8,3.4-3.1l0,0c0.5-1.2,0.7-2.4,0.6-3.5c0-0.5-0.2-1.5-0.8-1.9
		C249.7,426.5,249.6,426.4,249.4,426.4z"/>
</g>
<g>
	<path class="st0" d="M296.5,127.6c-3.9,0-6.9-1.5-7.2-3.8c-0.1-0.8,0.2-1.6,0.8-2.4c1.2-1.5,3.8-2.6,6.8-2.9
		c4.6-0.4,8.3,1.2,8.6,3.7c0.1,0.8-0.2,1.6-0.8,2.4c-1.2,1.5-3.8,2.6-6.8,2.9C297.5,127.6,297,127.6,296.5,127.6z M298.3,120.6
		c-0.4,0-0.8,0-1.2,0.1c-2.7,0.2-4.7,1.2-5.4,2.1c-0.2,0.3-0.3,0.6-0.3,0.8c0.1,1,2.7,2.2,6.4,1.9l0,0c2.7-0.2,4.7-1.2,5.4-2.1
		c0.2-0.3,0.3-0.6,0.3-0.8C303.4,121.7,301.3,120.6,298.3,120.6z"/>
</g>
<g>
	<path class="st0" d="M313.6,126.7c-4.6,0-8-1.9-8.1-4.4c0-0.8,0.3-1.6,1-2.3c1.4-1.4,4.1-2.3,7.1-2.3c0,0,0.1,0,0.1,0
		c4.6,0,8,1.9,8.1,4.4c0,0.8-0.3,1.6-1,2.3c-1.4,1.4-4.1,2.3-7.1,2.3l0,0C313.7,126.7,313.7,126.7,313.6,126.7z M313.7,119.8
		c0,0-0.1,0-0.1,0c-2.8,0-4.8,0.9-5.6,1.7c-0.3,0.3-0.4,0.5-0.4,0.8c0,1,2.4,2.4,6.1,2.4c0,0,0.1,0,0.1,0l0,0c2.8,0,4.8-0.9,5.6-1.7
		c0.3-0.3,0.4-0.5,0.4-0.8C319.7,121.2,317.3,119.8,313.7,119.8z"/>
</g>
<g>
	<path class="st0" d="M330.7,128c-0.4,0-0.8,0-1.3-0.1c-4.6-0.4-8-2.6-7.8-5.1c0.1-0.8,0.5-1.5,1.2-2.2c1.5-1.3,4.3-1.9,7.3-1.7
		c4.6,0.4,8,2.6,7.8,5.1c-0.1,0.8-0.5,1.6-1.2,2.2C335.5,127.4,333.2,128,330.7,128z M328.9,121c-2.2,0-3.9,0.6-4.7,1.2
		c-0.3,0.2-0.4,0.5-0.5,0.7c-0.1,1,2.2,2.6,5.9,2.9l0,0c2.8,0.2,4.9-0.4,5.8-1.2c0.3-0.2,0.4-0.5,0.5-0.7c0.1-1-2.2-2.6-5.9-2.9
		C329.6,121.1,329.2,121,328.9,121z"/>
</g>
<g>
	<path class="st0" d="M348.4,130.9c-1.2,0-2.4-0.2-3.8-0.5c-2.9-0.8-5.3-2.3-6.3-4.1c-0.5-0.8-0.6-1.7-0.3-2.4
		c0.7-2.5,4.6-3.4,9.1-2.2c2.9,0.8,5.3,2.3,6.3,4.1c0.5,0.8,0.6,1.7,0.3,2.4C353.2,130,351.1,130.9,348.4,130.9z M343.4,123.3
		c-1.9,0-3.2,0.6-3.4,1.2c-0.1,0.2,0,0.5,0.2,0.8c0.6,1,2.3,2.3,5,3.1c3.6,1,6.3,0.2,6.6-0.7c0.1-0.2,0-0.5-0.2-0.8
		c-0.6-1-2.3-2.3-5-3.1C345.4,123.4,344.3,123.3,343.4,123.3z"/>
</g>
<g>
	<path class="st0" d="M396.7,162.4c-2,0-4.5-1.2-6.7-3.5l0,0c-2-2.1-3.2-4.5-3.1-6.4c0-1,0.4-1.8,1.1-2.3c2-1.7,5.8-0.5,8.9,2.7
		c2,2.1,3.2,4.5,3.1,6.4c0,1-0.4,1.8-1.1,2.3C398.4,162.2,397.6,162.4,396.7,162.4z M391.6,157.5c2.6,2.6,5.3,3.3,6.1,2.6
		c0.2-0.2,0.3-0.5,0.3-0.9c0.1-1.3-0.9-3.2-2.5-4.9c-2.6-2.6-5.3-3.3-6.1-2.6c-0.2,0.2-0.3,0.5-0.3,0.9
		C389,154,390,155.9,391.6,157.5L391.6,157.5z"/>
</g>
<g>
	<path class="st0" d="M386,151.8c-1.8,0-4.1-0.8-6.3-2.4c-2.4-1.7-4-4-4.2-5.9c-0.1-1,0.1-1.8,0.6-2.5c1.6-2,5.6-1.5,9.3,1.2
		c2.4,1.7,4,4,4.2,5.9c0.1,1-0.1,1.8-0.6,2.5C388.4,151.4,387.3,151.8,386,151.8z M379.1,141.9c-0.7,0-1.1,0.2-1.4,0.4
		c-0.2,0.2-0.2,0.5-0.2,0.9c0.2,1.3,1.5,3.1,3.4,4.5c3,2.2,5.8,2.4,6.5,1.6c0.2-0.2,0.2-0.5,0.2-0.9c-0.2-1.3-1.5-3.1-3.4-4.5
		C382.2,142.5,380.4,141.9,379.1,141.9z"/>
</g>
<g>
	<path class="st0" d="M373,142.9c-1.6,0-3.5-0.5-5.5-1.4l0,0c-2.6-1.3-4.6-3.3-5.2-5.1c-0.3-0.9-0.2-1.8,0.2-2.5
		c1.2-2.2,5.3-2.4,9.3-0.3c2.6,1.3,4.6,3.3,5.2,5.1c0.3,0.9,0.2,1.8-0.2,2.5C376.2,142.3,374.8,142.9,373,142.9z M368.5,139.6
		c3.3,1.7,6.1,1.4,6.6,0.5c0.1-0.2,0.1-0.5,0-0.9c-0.3-1.1-1.7-2.7-4.2-3.9c-3.3-1.7-6.1-1.4-6.6-0.5c-0.1,0.2-0.1,0.5,0,0.9
		C364.6,136.8,366.1,138.4,368.5,139.6L368.5,139.6z"/>
</g>
<g>
	<path class="st0" d="M359,135.5c-1.5,0-3.1-0.3-4.9-1c-2.8-1.1-4.9-2.9-5.7-4.7c-0.4-0.9-0.4-1.7,0-2.5c1-2.3,5-2.8,9.3-1.1
		c2.8,1.1,4.9,2.9,5.7,4.7c0.4,0.9,0.4,1.7,0,2.5C362.8,134.7,361.1,135.5,359,135.5z M352.9,127.2c-1.4,0-2.3,0.4-2.5,0.9
		c-0.1,0.2-0.1,0.5,0.1,0.9c0.4,1,2,2.6,4.5,3.6c3.4,1.4,6.2,0.9,6.6,0c0.1-0.2,0.1-0.5-0.1-0.9c-0.4-1-2-2.6-4.5-3.6
		C355.4,127.4,354,127.2,352.9,127.2z"/>
</g>
<g>
	<path class="st0" d="M351.9,127.7c-0.6,0-1.1-0.1-1.5-0.4c-2.2-1.3-2.1-5.3,0.2-9.3c1.5-2.6,3.5-4.5,5.4-5c0.9-0.2,1.8-0.1,2.5,0.3
		c2.2,1.3,2.1,5.3-0.2,9.3l0,0c-1.5,2.6-3.5,4.5-5.4,5C352.5,127.6,352.2,127.7,351.9,127.7z M356.9,114.9c-0.1,0-0.3,0-0.4,0.1
		c-1.1,0.3-2.8,1.6-4.1,4c-1.8,3.2-1.7,6-0.9,6.6c0.2,0.1,0.5,0.1,0.9,0.1c1.1-0.3,2.8-1.6,4.1-4l0,0c1.8-3.2,1.7-6,0.9-6.6
		C357.2,114.9,357.1,114.9,356.9,114.9z"/>
</g>
<g>
	<path class="st0" d="M360.1,114.8c-0.7,0-1.2-0.2-1.7-0.5c-2.1-1.5-1.7-5.5,0.8-9.3c1.7-2.5,3.9-4.2,5.8-4.6c0.9-0.2,1.8,0,2.4,0.5
		c2.1,1.5,1.7,5.5-0.8,9.3v0c-1.6,2.5-3.9,4.2-5.8,4.6C360.6,114.8,360.3,114.8,360.1,114.8z M365.7,102.4c-0.1,0-0.2,0-0.3,0
		c-1.1,0.2-2.9,1.4-4.4,3.7c-2,3.1-2.2,5.9-1.3,6.5c0.2,0.1,0.5,0.2,0.9,0.1c1.1-0.2,2.9-1.4,4.4-3.7v0c2-3.1,2.2-5.9,1.3-6.5
		C366.1,102.4,365.9,102.4,365.7,102.4z"/>
</g>
<g>
	<path class="st0" d="M368.3,102.9c-0.8,0-1.4-0.2-1.9-0.7c-2-1.6-1.3-5.6,1.4-9.2c1.8-2.4,4.1-4,6.1-4.2c0.9-0.1,1.8,0.1,2.4,0.6
		c2,1.6,1.3,5.6-1.4,9.2c-1.8,2.4-4.1,4-6.1,4.2C368.6,102.9,368.4,102.9,368.3,102.9z M374.3,90.9c-0.1,0-0.1,0-0.2,0
		c-1.1,0.1-3,1.2-4.7,3.4c-2.3,2.9-2.6,5.7-1.8,6.4c0.2,0.2,0.5,0.2,0.9,0.2c1.1-0.1,3-1.2,4.7-3.4c2.3-2.9,2.6-5.7,1.8-6.4
		C374.8,91,374.6,90.9,374.3,90.9z"/>
</g>
<g>
	<path class="st0" d="M378.1,91.8c-0.1,0-0.3,0-0.4,0c-0.9-0.1-1.7-0.5-2.2-1.1c-1.6-2-0.2-5.7,3.2-8.8c2.2-2,4.8-3.1,6.8-2.9
		c0.9,0.1,1.7,0.5,2.2,1.1c1.6,2,0.2,5.7-3.2,8.8l0,0C382.4,90.7,380,91.8,378.1,91.8z M385.1,81.1c-1.2,0-3.1,0.7-5,2.4
		c-2.8,2.4-3.6,5.1-3,5.9c0.2,0.2,0.4,0.3,0.8,0.3c1.1,0.1,3.2-0.6,5.2-2.4l0,0c2.8-2.4,3.6-5.1,3-5.9c-0.2-0.2-0.4-0.3-0.8-0.3
		C385.3,81.1,385.2,81.1,385.1,81.1z"/>
</g>
<g>
	
		<rect x="240.4" y="439.1" transform="matrix(0.3308 -0.9437 0.9437 0.3308 -251.2095 525.7911)" class="st0" width="9.4" height="1.8"/>
</g>
</svg>
