<?xml version="1.0" encoding="utf-8"?>
<!-- Generator: Adobe Illustrator 21.1.0, SVG Export Plug-In . SVG Version: 6.00 Build 0)  -->
<svg version="1.1" xmlns="http://www.w3.org/2000/svg" xmlns:xlink="http://www.w3.org/1999/xlink" x="0px" y="0px"
	 viewBox="0 0 600 600" style="enable-background:new 0 0 600 600;" xml:space="preserve">
<style type="text/css">
	.st0{display:none;}
	.st1{display:inline;opacity:0.19;fill:none;stroke:#1D1D1B;stroke-miterlimit:10;}
	.st2{fill:#374E68;}
	.st3{fill:#FFFFFF;}
</style>
<g id="Calque_1" class="st0">
	<line class="st1" x1="-107.7" y1="116.3" x2="704.6" y2="116.3"/>
	<line class="st1" x1="-105.8" y1="309.5" x2="706.5" y2="309.5"/>
	<line class="st1" x1="-104.6" y1="505.8" x2="707.7" y2="505.8"/>
	<line class="st1" x1="103.7" y1="717.2" x2="103.7" y2="-95.1"/>
	<line class="st1" x1="296.9" y1="715.3" x2="296.9" y2="-97"/>
	<line class="st1" x1="493.3" y1="714.1" x2="493.3" y2="-98.2"/>
</g>
<g id="Calque_3">
</g>
<g id="Calque_4">
	<g>
		<path class="st2" d="M352.6,257.1L352.6,257.1C357.3,255.1,350.7,258.5,352.6,257.1c8-5.6,22-37.3,19.7-48.8
			c0.9,0,1.9,0.1,2.8,0.1c28.8,0,52.1-23.3,52.1-52.1c0-28.8-23.3-52.1-52.1-52.1c-14.9,0-28.4,6.3-37.9,16.4
			c-10.7-7.3-33.9-7.7-39.8-7.7c-5.8,0-29.1,0.4-39.8,7.7c-9.5-10.1-23-16.4-37.9-16.4c-28.8,0-52.1,23.3-52.1,52.1
			c0,28.8,23.3,52.1,52.1,52.1c0.9,0,1.9,0,2.8-0.1c-2.2,11.5,11,44.4,19.7,48.8c10.4,5.3-4.4-1.5,0.3,0.6l-0.3-0.6
			c0,0-70.8,32.8-60.1,111.6c0.8,6.1,3.7,11.9,8.4,16c5.7,4.9,14.4,8.1,25.8-1.2c-4.9,10.3-7.6,25-1.9,44.6
			c13,44.3,16.5,59.9,29.5,67.7c18.3,11,38.5,14.7,48.2,2c6.6-8.7,4-33.7,2-66.1c0.8,0,1.6,0.1,2.4,0.1c1.3,0,2.7-0.1,4-0.1
			c-2,32.4-4.6,57.5,2,66.2c9.6,12.7,29.9,9,48.2-2c13-7.8,16.5-23.5,29.5-67.7c5.8-19.7,3-34.3-1.9-44.6c11.3,9.2,20.1,6,25.8,1.2
			c4.7-4.1,7.6-9.8,8.4-16C423.4,290,352.6,257.1,352.6,257.1z"/>
		<polygon class="st3" points="309.7,283 285.4,283 284.4,274.4 308.8,274.4 		"/>
		<path class="st3" d="M305.2,275.6c0,0,41-15.6,47.3-18.5c5-2.3,10,13.6,6.5,22.8c-3.5,9.2-3.5,28.7-8.7,30.4
			c-5.2,1.7-10.4,1.7-14.8-2.6c-4.3-4.3-28.7-27.7-28.7-27.7L305.2,275.6z"/>
		<path class="st3" d="M286.3,274.5c0,0-34.2-10.2-46.2-18.2c-4.6-3-11.1,13.3-7.6,22.5s3.5,28.7,8.7,30.4
			c5.2,1.7,10.4,1.7,14.8-2.6c4.3-4.3,28.7-27.7,28.7-27.7L286.3,274.5z"/>
		<path class="st3" d="M305.6,281.3c0,0-7.8,15.6-6.9,32.1c0.9,16.5,15.6,60.8,15.6,60.8s22.6-20,27.8-22.6
			c5.2-2.6,27.8-2.6,27.8-2.6s-56.5-73.6-62.5-72S305.6,281.3,305.6,281.3z"/>
		<path class="st3" d="M287.5,281.7c0,0,7.8,15.6,6.9,32.1c-0.9,16.5-15.6,60.8-15.6,60.8s-22.6-20-27.8-22.6s-27.8-2.6-27.8-2.6
			s56.5-73.6,62.5-72C291.8,279.1,287.5,281.7,287.5,281.7z"/>
	</g>
</g>
</svg>
