<?xml version="1.0" encoding="utf-8"?>
<!-- Generator: Adobe Illustrator 21.1.0, SVG Export Plug-In . SVG Version: 6.00 Build 0)  -->
<svg version="1.1" id="Calque_3" xmlns="http://www.w3.org/2000/svg" xmlns:xlink="http://www.w3.org/1999/xlink" x="0px" y="0px"
	 viewBox="0 0 600 600" style="enable-background:new 0 0 600 600;" xml:space="preserve">
<style type="text/css">
	.st0{fill:#374E68;}
</style>
<path class="st0" d="M436.4,350.8C424.7,298,403.1,142.9,398,143.6l-5.7-18.4c-31.8,5.9-56.8,6.9-85.8,7.1c-29-0.1-54-1.2-85.8-7.1
	l-5.7,18.4c-5.1-0.7-26.7,154.4-38.4,207.2c-6,26.9-7,50.5,0.2,61l-0.3,22.8c0,0,39.9,25.2,92.8,13.6l4.7-22.2
	c12.1-6.3,16.6-41.2,18.8-58.9c9.4-77.2,10.7-133.8,10.7-133.8l2.7,0.2v0l0,0l0.1,0l0.1,0l0.1,0l0.1,0l0,0v0l2.7-0.2
	c0,0,1.3,56.6,10.7,133.8c2.1,17.7,6.6,50.5,18.8,58.9l4.4,22.2c52.9,11.6,93.1-13.6,93.1-13.6l-0.3-22.8
	C443.4,401.3,442.3,377.7,436.4,350.8z"/>
</svg>
