<?xml version="1.0" encoding="utf-8"?>
<!-- Generator: Adobe Illustrator 21.1.0, SVG Export Plug-In . SVG Version: 6.00 Build 0)  -->
<svg version="1.1" id="Calque_4" xmlns="http://www.w3.org/2000/svg" xmlns:xlink="http://www.w3.org/1999/xlink" x="0px" y="0px"
	 viewBox="0 0 600 600" style="enable-background:new 0 0 600 600;" xml:space="preserve">
<style type="text/css">
	.st0{fill:#374E68;}
</style>
<g>
	<path class="st0" d="M391.6,262.9c0,0,7.4-2.1,7.3-8.6c0-4.7-4.8-6-4.8-6s6.9-3.9,4.3-9.9c-2.1-4.9-8-4.7-8-4.7s8.2-3.3,7-9.4
		c-1.3-6.6-10.1-6.1-10.1-6.1s7.6-3,6.4-9.5c-1.1-6.4-10.6-6.7-10.6-6.7s8.5-3.5,5.4-11c-2.6-6.2-10.6-5-10.6-5l-1.9-0.7L302,273.6
		l69.2-92.1l-1.1-1.7c0,0-0.6-8.1-7.3-9.2c-8-1.3-9.5,7.7-9.5,7.7s-2.4-9.2-8.9-8.8c-6.6,0.4-7.8,8.4-7.8,8.4s-1.6-8.6-8.3-8.4
		c-6.1,0.2-7.5,8.9-7.5,8.9s-1.2-5.7-6.4-6.7c-6.5-1.2-8.7,6.4-8.7,6.4s-2.3-4.3-6.9-3.3c-6.3,1.4-6.7,9-6.7,9s-6.1-5.7-9.1,0.8
		c-0.5,1.1-0.8,2.4-0.9,3.6l-1.8,41.4c0,0-3-4.2-6.6,0.3s3,39.2,3,39.2l-3.8,5.4l-4.9,0.3c-5.6,0.4-10.7,3.3-13.6,8.1
		c-1.4,2.3-1.7,4-1.7,4c-14.9,4.3-13.1,19.8-13.1,19.8c-13.5,4-9.8,16.9-9.8,16.9c-21.8,19.1-76.6,119.1-86.3,137l-2,2.4l-1.5,1.9
		l0.5,0.4l4.1,3.3l-26.1,33l0.5,0.4l2.4,1.9l0.5,0.4l26.1-33l4.1,3.3l0.5,0.4l1.5-1.9l1.8-2.5c15.2-13.6,100.1-89.7,113.8-115.3
		c0,0,13.4,0.7,14.2-13.3c0,0,15.5-1.7,16.3-17.2c0,0,1.5-0.7,3.5-2.5c4-3.9,5.7-9.6,4.8-15.1l-0.8-4.8l4.4-4.9c0,0,35.2-1.4,38.8-6
		c3.6-4.5-1.2-6.5-1.2-6.5l39.9-11.1c1.2-0.4,2.3-1,3.3-1.7C398.5,267.5,391.6,262.9,391.6,262.9z"/>
	<g>
		<g>
			<path class="st0" d="M298.1,284.5c22.7-29,45.4-58.1,68.1-87.1c22.2-28.3,44.3-56.7,66.7-84.8c4.9-6.2,10.4-11.7,18.5-13.3
				c6.7-1.4,14,0.4,19.4,4.8c16.1,13.3,3.8,34.3-8,45.5c-2.8,2.7,1.4,6.9,4.2,4.2c11.5-10.9,22.2-27.4,15.4-43.7
				c-4.8-11.6-17.2-18.4-29.5-17.1c-15.9,1.7-24.3,15.3-33.4,26.7c-5.4,6.8-10.9,13.7-16.3,20.5c-26.4,33.6-52.6,67.3-78.9,100.9
				c-10.2,13-20.4,26-30.5,39.1C291.5,283.2,295.7,287.5,298.1,284.5L298.1,284.5z"/>
		</g>
	</g>
</g>
</svg>
