<?xml version="1.0" encoding="utf-8"?>
<!-- Generator: Adobe Illustrator 21.1.0, SVG Export Plug-In . SVG Version: 6.00 Build 0)  -->
<svg version="1.1" id="Calque_5" xmlns="http://www.w3.org/2000/svg" xmlns:xlink="http://www.w3.org/1999/xlink" x="0px" y="0px"
	 viewBox="0 0 600 600" style="enable-background:new 0 0 600 600;" xml:space="preserve">
<style type="text/css">
	.st0{fill:#374E68;}
	.st1{fill:#FFFFFF;}
</style>
<g>
	<path class="st0" d="M419.4,184.5c0,0-12.9-18.8-40.6,13.9c0,0-9.9-41.6-25.8-40.6c-15.9,1-40.6,11.9-51.5,29.7
		c-10.9,17.8-85.2,120.9-111,122.9c0,0-62.6,12.7-66.4,40.6c-3.2,23.5-1,22.8-1,22.8s-4,8.9,1,13.9c5,5,48.6,17.8,75.3,13.9
		c0,0-9.9,24.8-4,37.7c8.1,17.8,26,17.5,41.6,18.2c27.5,1.4,73.3-5.3,83.3-10.3c9.9-5,25.8-5.9,38.6-40.6
		c8.1-21.8,20.3-53,33.3-77.8c-0.3,17,0.8,31.9,0.8,31.9l9.3,7l7-3.9c0.6-41,11.4-68.4,15.9-78.2c9.5-9,13.6-14.1,17-21.4
		C446.6,254.4,453.1,243,419.4,184.5z"/>
	<path class="st1" d="M251.7,365.4c-3.9-5.3-3.2-12.6,1.2-17.4c13.8-15.1,54.1-59.3,68.3-75.2c18.9-21.1,45.3-51.2,67.7-76.7
		c15.4-17.6,28.4-10.6,28.4,1.6c0,12.2-23.5,76.7-30.8,89.3c-8.6,14.9-33.2,77.5-50.7,89c-17.5,11.4-48.8,9.1-56.4,6.1
		c-7.6-3-19.5-6.8-27.2-16C252.1,365.9,251.9,365.7,251.7,365.4z"/>
	<path class="st1" d="M353,163.5c-2.9-0.7-5.9,0-8.9,0.5c-9.8,1.8-26.4,11.3-32.1,18c-7.8,9.2-25.1,35.5-28.4,40.5
		c-53.5,81.9-88.2,89.3-90,96.4c-2.6,10.3,11.6,25.6,36,18.7c24.4-6.9,83.8-80.1,92.6-96.3s25-43.8,28.8-51.3
		C354.4,183.2,367.4,166.7,353,163.5z"/>
	<g>
		<path class="st0" d="M287.8,207.5c0,0,1.9,5.6-3.1,6.1c-18.5,1.9-47.2,14.1-49.8,26c-3.5,15.9,57.3,29.7,96,0l3.5-13.1
			c0,0-33.2,33.2-87.7,11.7S287.8,207.5,287.8,207.5z"/>
		<path class="st0" d="M356.4,226.1c0,0-50.9,32-49.4,51.1c1.5,19,51.3,35.6,88.6,5.2l3.7-19.8c0,0-33.6,42.3-77.4,14
			C291.8,257.2,356.4,226.1,356.4,226.1z"/>
		<polygon class="st0" points="229.9,226.9 235.3,243.6 237.8,234.3 		"/>
		<path class="st0" d="M242.4,229.6c0,0-5.7,3.4,0.8,7.2s-4.2,4.1-4.2,4.1l-3.6-12.4L242.4,229.6z"/>
	</g>
</g>
</svg>
