<?xml version="1.0" encoding="utf-8"?>
<!-- Generator: Adobe Illustrator 21.1.0, SVG Export Plug-In . SVG Version: 6.00 Build 0)  -->
<svg version="1.1" id="Calque_4" xmlns="http://www.w3.org/2000/svg" xmlns:xlink="http://www.w3.org/1999/xlink" x="0px" y="0px"
	 viewBox="0 0 600 600" style="enable-background:new 0 0 600 600;" xml:space="preserve">
<style type="text/css">
	.st0{fill:#374E68;}
</style>
<g>
	<path class="st0" d="M413.1,97.9c-1.9-0.8-4.1-0.1-4.8,1.6l-0.6,1.4l0,0l1.5-4.1c0.6-1.7-0.5-3.7-2.4-4.4c-2-0.7-4.1,0.1-4.7,1.8
		l0.7-1.9c0.6-1.7-0.5-3.7-2.4-4.4c-2-0.7-4.1,0.1-4.7,1.8l-2.2,6.2l0,0l2.7-7.6c0.6-1.7-0.6-3.7-2.6-4.5c-2.1-0.8-4.3,0-4.9,1.7
		l-2.8,7.7l0,0l3.1-8.7c0.6-1.7-0.5-3.7-2.6-4.5c-2-0.7-4.1,0-4.8,1.6c-0.2-1.3-1.2-2.5-2.6-3.1c-2-0.8-4.2,0-4.9,1.7l-0.5,1.4
		c0.7-1.7-0.5-3.7-2.5-4.5h0c-2-0.8-4.2,0-4.9,1.7l-0.7,1.9c0.7-1.7-0.5-3.7-2.5-4.5l0,0c-2-0.8-4.2,0-4.9,1.7l-0.6,1.5
		c0-1.5-1.1-2.9-2.9-3.5c-2.1-0.7-4.2,0.2-4.8,1.9l-2.7,8.3L228.3,418.9l-65.5,27c-17,7-25.2,26.7-18.2,43.8l1.1,2.8
		c7,17,26.7,25.2,43.8,18.2l88.9-36.6c4.5-1.8,7.2-6.1,7.4-10.6l125.8-352c0.1-0.1,0.2-0.3,0.2-0.4l3.6-8.7
		C416,100.7,415,98.6,413.1,97.9z M371.1,87.8L371.1,87.8l1.1-2.9L371.1,87.8z"/>
	<g>
		<path class="st0" d="M413.8,114.1c2.2-1.3,5.2-1.5,7.6-1c2.9,0.6,5.5,2.3,7.6,4.3c1.3,1.3,4.3,4.2,3.4,6.4c-1.2,2.8-6.8,2-9,1.2
			c-2.7-0.9-13.3-8.1-9.4-11.2c1.5-1.2-0.6-3.3-2.1-2.1c-8.3,6.6,14.3,23.4,22.3,14.7c4.7-5.1-3.8-12.5-7.7-14.6
			c-4.3-2.3-10-2.8-14.3-0.4C410.6,112.5,412.1,115.1,413.8,114.1z"/>
	</g>
	<g>
		<path class="st0" d="M410.3,110.8c-1.2,4.3-1.7,8.8-1.8,13.3c-0.3,9.5,2.5,17.6,5.4,26.5c3.8,11.6,5.6,24.1,6.1,36.3
			c0.1,1.9,3.1,1.9,3,0c-0.5-11-2-22.3-5-32.9c-2.5-9.2-6.4-17.2-6.6-27c-0.1-5.1,0.3-10.5,1.7-15.4
			C413.8,109.8,410.9,109,410.3,110.8L410.3,110.8z"/>
	</g>
</g>
</svg>
