<?xml version="1.0" encoding="utf-8"?>
<!-- Generator: Adobe Illustrator 21.1.0, SVG Export Plug-In . SVG Version: 6.00 Build 0)  -->
<svg version="1.1" id="Calque_3" xmlns="http://www.w3.org/2000/svg" xmlns:xlink="http://www.w3.org/1999/xlink" x="0px" y="0px"
	 viewBox="0 0 600 600" style="enable-background:new 0 0 600 600;" xml:space="preserve">
<style type="text/css">
	.st0{fill:#374E68;}
	.st1{fill:#FFFFFF;}
</style>
<g>
	<path class="st0" d="M413.1,342.8c1.7-11.2,6.7-30.4,9.4-50.3c-18.6-66.8-19.3-141.3-18-166.5l-41.2-8.8c0,0-35.7,103.7-65.4,161.3
		v0.6c-29.4-57.9-64.3-159.2-64.3-159.2l-41.2,8.8c1.3,25.2,0.6,99.7-18,166.5c2.6,19.9,7.7,39.1,9.4,50.3
		c1.6,11.1-6.9,54.7-15.3,85.3c1.1,0.8,2.2,2,3.2,3.5c13.7,20.6,89,56.3,115.6,70.7l11.3-54l10.9,54.9
		c26.6-14.4,101.8-53.7,115.5-74.3c1-1.5,2.1-2.7,3.2-3.5C420,397.5,411.5,353.9,413.1,342.8z"/>
	<circle class="st1" cx="338.8" cy="310.8" r="7.5"/>
	<circle class="st1" cx="333.2" cy="359.9" r="7.5"/>
	<circle class="st1" cx="329.1" cy="409.8" r="7.5"/>
	<circle class="st1" cx="256.2" cy="308.9" r="7.5"/>
	<circle class="st1" cx="261.3" cy="359.9" r="7.5"/>
	<circle class="st1" cx="266.6" cy="410.7" r="7.5"/>
</g>
</svg>
