<svg xmlns="http://www.w3.org/2000/svg" width="266" height="251">
  <circle fill="#374E68" cx="96" cy="111" r="13"/>
  <path fill="#374E68" d="M73 99c8-14 24-21 40-12 9 6 13 16 10 33 9-7 13-19 14-28 1-11-4-22-13-28s-22-7-32-2c-15 8-19 21-19 36"/>
  <path fill="#374E68" d="M84 138a50 50 0 0 1-22-46c0-12 5-26 13-35 16-18 45-16 61 1-2-30-41-42-65-34-18 5-29 15-36 32-7 16-9 36 1 51 11 19 27 26 48 31"/>
  <path fill="#374E68" d="M20 83c-1 7 1 14 4 21 13 32 54 54 88 42 22-7 35-38 41-58 3 7 3 26 4 34 0 14-2 29-5 44-4 17-12 36-29 50-16 13-41-1-54-10A138 138 0 0 1 20 83"/>
  <path fill="#374E68" d="M13 139c9 53 55 95 109 97-7 5-18 10-24 11-19 5-44 6-62-2-16-6-29-20-34-36-6-17 2-49 11-70m116 99a223 223 0 0 0 78-44c17-13 34-27 48-43 5 34-10 79-47 88-17 5-33 6-52 5-7-1-22-3-27-6M67 8a83 83 0 0 1 84 44c12 20 16 41 18 62 2 33-6 78-28 105 55-23 81-90 71-145-11-61-93-89-145-66"/>
  <path fill="#374E68" d="M177 9c3-1 15 6 21 11a83 83 0 0 1 9 11c6 8 11 15 14 25 3 9 5 18 6 28l1 32c-1 15-6 38-14 51 13-11 30-31 38-46 10-18 16-43 13-64-7-38-47-62-82-51l-6 3"/>
</svg>
