<svg version="1" xmlns="http://www.w3.org/2000/svg" width="569" height="325">
  <g fill="#374E68">
    <circle cx="175" cy="85" r="10"/>
    <path d="M158 76c6-11 18-16 30-9 8 4 11 12 8 24 7-5 10-14 11-21 0-8-3-16-10-21s-17-6-25-1c-11 6-14 15-14 27"/>
    <path d="M166 105c-11-8-18-19-17-35 1-9 4-19 11-26 12-14 34-13 46 0-2-22-32-32-50-26-13 4-22 12-27 24-5 13-7 28 0 40 9 14 22 20 37 23"/>
    <path d="M117 64l3 15c10 25 42 42 68 33 16-6 26-30 31-45a147 147 0 0 1-1 60c-3 13-9 28-22 38-12 10-32-1-41-8a105 105 0 0 1-38-93"/>
    <path d="M112 106c7 41 42 72 83 75l-18 8c-14 3-33 4-47-2-13-5-22-15-26-27-5-13 1-38 8-54M201 182a171 171 0 0 0 59-34c13-10 26-20 37-33 4 26-8 61-36 68-13 3-26 4-40 3-5 0-17-2-20-4M153 6c12-2 31 3 42 9 9 5 17 15 23 25 8 15 11 31 13 47 2 25-4 59-21 80 42-18 62-69 54-111-9-46-71-67-111-50"/>
    <path d="M237 7c2-1 12 4 16 8l7 9c5 6 8 11 11 19l5 21v25c0 11-4 29-11 38 11-8 24-23 30-34 7-14 12-34 9-49-5-29-36-48-63-39l-4 2"/>
  </g>
  <g fill="#374E68">
    <circle cx="404" cy="117" r="7"/>
    <path d="M416 110c-4-7-13-11-21-6-6 3-8 8-6 17-5-3-7-10-8-15 0-5 3-11 7-14 5-4 12-4 18-1 8 4 10 11 10 19"/>
    <path d="M410 131c8-6 12-14 12-25 0-6-3-13-7-18-9-10-25-9-33 0 1-16 22-22 35-18 9 3 15 8 19 17s5 19 0 28c-6 10-15 14-26 16"/>
    <path d="M444 102c1 3 0 7-2 11-7 17-29 29-47 23-12-4-19-21-22-32-2 4-2 14-2 19l2 23c3 9 7 20 16 27s22 0 29-5a74 74 0 0 0 26-66"/>
    <path d="M448 132c-5 28-30 51-59 52 4 3 10 5 13 6 11 2 24 3 34-1 8-4 15-11 18-20s-1-26-6-37M386 185a120 120 0 0 1-42-24c-9-7-18-14-26-23-3 18 6 43 25 48 10 2 18 3 28 2l15-3M419 61c-8-2-22 3-29 7-7 3-13 10-16 17a87 87 0 0 0 5 90c-29-13-43-49-38-78 6-33 50-48 78-36"/>
    <path d="M360 62c-2-1-8 3-11 6l-5 6-8 13-3 15v17c0 8 3 21 7 28-7-6-16-17-20-25-6-10-9-23-7-34 4-21 25-33 44-28l3 2"/>
  </g>
  <g fill="#374E68">
    <path d="M3 248l2 1 1 2v67h35l2 1 1 3-1 2-2 1H3l-2-1-1-2v-71l1-2 2-1zM91 325c-10 0-19-4-27-11-7-8-11-17-11-28 0-10 4-19 11-27 8-7 17-11 27-11 11 0 20 4 28 11 7 8 11 17 11 27 0 11-4 20-11 28-8 7-17 11-28 11zm0-71c-9 0-16 3-22 10-7 6-10 13-10 22s3 17 10 23c6 6 13 9 22 9s17-3 23-9 9-14 9-23-3-16-9-22c-6-7-14-10-23-10zM151 248l3 1v69h35l3 1 1 3-1 2-3 1h-38l-2-1-1-2v-71l1-2 2-1zM213 322l-1 2-3 1-2-1-1-2v-71l1-2 2-1 3 1 1 2v71zM237 325l-2-1-1-2v-71l1-2 2-1h25c7 0 12 2 16 6 5 4 7 9 7 14 0 4-1 7-3 10l-7 8 8 7c2 4 3 7 3 11 0 6-2 11-6 15-5 4-10 6-16 6h-27zm4-42h21c5 0 9-1 12-4s4-7 4-11-1-7-4-10c-3-2-7-4-12-4h-21v29zm0 35h23c4 0 8-1 11-4s5-6 5-10-2-7-5-10-7-4-11-4h-1-22v28zM333 248c6 0 12 2 16 6 5 4 7 9 7 15 0 5-2 9-6 13-3 4-8 6-13 7l15 31 1 3a3 3 0 0 1-3 2c-2 0-3-1-3-2l-17-34h-18v32l-1 2-2 1-2-1-1-2v-70l1-2 2-1h24zm16 21c0-4-1-8-4-10-3-3-7-5-12-5h-21v29h22c4 0 8-2 11-4 3-3 4-6 4-10zM370 325l-1-2v-3l7-18 22-52v-1h1v-1h3l1 1 1 1 21 52 8 18v3l-2 2h-1c-2 0-3-1-3-2l-7-16h-39l-7 16c0 1-1 2-3 2h-1zm48-25l-17-41-17 41h34zM474 248c7 0 12 2 16 6 5 4 7 9 7 15 0 5-2 9-6 13-3 4-7 6-13 7l16 31v3l-2 2h-1c-2 0-3-1-3-2l-17-34h-18v32l-1 2-2 1-2-1-1-2v-70l1-2 2-1h24zm17 21c0-4-2-8-5-10-3-3-7-5-12-5h-21v29h22c4 0 8-2 11-4 3-3 5-6 5-10zM568 248l1 3-1 2-26 33v36l-1 2a3 3 0 0 1-5 0l-1-2v-36l-26-33-1-2 1-3h3l2 1 24 31 25-31 2-1h3z"/>
  </g>
</svg>
