<svg xmlns="http://www.w3.org/2000/svg" width="119" height="26">
  <path fill-rule="evenodd" opacity=".3" fill="#424770" d="M113 26H6a6 6 0 0 1-6-6V6a6 6 0 0 1 6-6h107a6 6 0 0 1 6 6v14a6 6 0 0 1-6 6zm5-20a5 5 0 0 0-5-5H6a5 5 0 0 0-5 5v14a5 5 0 0 0 5 5h107a5 5 0 0 0 5-5V6z"/>
  <path fill-rule="evenodd" opacity=".5" fill="#424770" d="M60.7 18.4h-1.3l1-2.5-2-5h1.4l1.2 3.4 1.3-3.4h1.4l-3 7.5zm-5-2.1c-.5 0-1-.2-1.3-.5v.3H53V8.6h1.4v2.6c.4-.3.8-.5 1.3-.5 1.4 0 2.4 1.2 2.4 2.8 0 1.6-1 2.8-2.4 2.8zm-.3-4.4c-.4 0-.7.2-1 .5v2.2c.3.3.6.5 1 .5.8 0 1.3-.7 1.3-1.6 0-1-.5-1.6-1.3-1.6zm-7.8 3.9c-.5.3-1 .5-1.4.5-1.4 0-2.4-1.2-2.4-2.8 0-1.6 1-2.8 2.4-2.8.5 0 1 .2 1.4.5V8.6h1.3V16h-1.3v-.3zm0-3.4c-.4-.3-.7-.5-1-.5-.9 0-1.4.7-1.4 1.6 0 1 .5 1.6 1.3 1.6.4 0 .7-.2 1-.5v-2.2zm-8 1.5c0 .8.7 1.3 1.5 1.3.5 0 1-.2 1.6-.5v1.1c-.6.3-1.2.5-1.8.5-1.6 0-2.7-1.2-2.7-2.8 0-1.6 1.1-2.8 2.6-2.8 1.4 0 2.3 1.1 2.3 2.7v.5h-3.6zm1.2-2.1c-.7 0-1.2.5-1.3 1.2h2.3c0-.7-.4-1.2-1-1.2zm-4.8.8v3.5h-1.4V11H36v.5c.4-.4.8-.7 1.3-.7l.4.1V12h-.4c-.5 0-1 .2-1.3.6zM30 14c0 .8.7 1.3 1.6 1.3.5 0 1-.2 1.5-.5v1.1c-.6.3-1.2.5-1.7.5-1.6 0-2.7-1.2-2.7-2.8 0-1.6 1-2.8 2.6-2.8 1.3 0 2.3 1.1 2.3 2.7v.5H30zm1.2-2.1c-.7 0-1.2.5-1.2 1.2h2.3c0-.7-.5-1.2-1.1-1.2zm-6 4.3l-1-3.5-1 3.5h-1.3L20.1 11h1.4l1 3.5 1-3.5h1.3l1 3.5L27 11h1.4L26.5 16h-1.2zm-8.2.2a2.6 2.6 0 0 1-2.7-2.8c0-1.6 1.2-2.8 2.7-2.8 1.6 0 2.7 1.2 2.7 2.8 0 1.6-1 2.8-2.7 2.8zm0-4.4c-.7 0-1.3.6-1.3 1.6s.6 1.6 1.3 1.6c.8 0 1.4-.6 1.4-1.6s-.6-1.6-1.4-1.6zm-5.9 1.6H10v2.6H8.6V9H11c1.5 0 2.6 1 2.6 2.3 0 1.4-1.1 2.3-2.6 2.3zM11 10h-1v2.4h1c.8 0 1.4-.5 1.4-1.2s-.6-1.2-1.4-1.2zM111.1 14h-5.5c0 1.4 1 1.8 2.2 1.8a6 6 0 0 0 2.8-.7v2.3c-.8.5-1.8.8-3.2.8-2.8 0-4.7-1.8-4.7-5.2 0-2.9 1.6-5.2 4.3-5.2 2.7 0 4.2 2.3 4.2 5.2v1zm-4-3.9c-.8 0-1.6.6-1.6 1.9h3c0-1.3-.8-1.9-1.5-1.9zm-9 8c-1 0-1.6-.4-2-.6v3.2l-2.8.6V8h2.5l.1.7c.4-.4 1.1-.9 2.2-.9 2 0 3.9 1.8 3.9 5.1 0 3.6-1.9 5.3-3.9 5.3zm-.7-7.8c-.6 0-1 .3-1.3.6v4.2c.3.3.7.6 1.3.6 1.1 0 1.8-1.2 1.8-2.7 0-1.5-.7-2.7-1.8-2.7zM89.1 8H92v10h-2.9V8zm0-3.2l2.9-.6v2.3l-2.9.6V4.8zm-3 6.4V18h-2.8V8h2.4l.2.9c.7-1.3 2-1 2.4-.9v2.6c-.4 0-1.5-.3-2.2.6zm-6 3.3c0 1.6 1.7 1.1 2 1v2.3c-.3.2-1 .4-2 .4-1.6 0-2.9-1.3-2.9-3v-9l2.8-.7V8h2.2v2.4H80v4zm-3.6.5c0 2-1.6 3.2-4 3.2-1 0-2-.2-3.1-.7v-2.7c1 .5 2.2 1 3.1 1 .6 0 1-.2 1-.8 0-1.3-4.2-.8-4.2-4 0-2 1.5-3.2 3.8-3.2 1 0 1.9.2 2.8.5V11c-.8-.4-2-.7-2.8-.7-.6 0-1 .2-1 .6 0 1.3 4.4.7 4.4 4z"/>
</svg>
